<svg width="200" height="60" xmlns="http://www.w3.org/2000/svg" version="1.1" enable-background="new 0 0 2000 1414" xml:space="preserve">
 <g>
  <title>Layer 1</title>
  <path fill="#004389" d="m3215.39893,1720.71002c-361.33325,0 -722.16644,0 -1082.99976,0c-0.00008,-471.33307 -0.00008,-942.66617 -0.00016,-1413.99944c666.66612,-0.00019 1333.33232,-0.00019 1999.99894,-0.00037c0.00025,471.33257 0.00025,942.66534 0.00061,1413.99896c-305.49963,0.00085 -610.99963,0.00085 -916.99963,0.00085m566.72437,-788.26642c2.75683,-0.67346 5.51379,-1.34692 8.95007,-2.00903c0.44702,-0.04913 0.89404,-0.09833 2.02087,0.17908c8.20398,-3.49298 16.50098,-6.78547 24.5857,-10.5354c8.10168,-3.75769 16.2854,-7.48566 23.91186,-12.09015c14.68042,-8.86341 27.12305,-20.15656 35.54614,-36.26886c2.56031,-6.47431 5.83509,-12.76459 7.55848,-19.45453c7.83984,-30.43341 0.82543,-57.11264 -21.53687,-80.26947c-13.172,-10.42997 -22.02356,-10.6294 -36.25806,-1.8227c-2.7821,1.72129 -3.7113,3.52271 -4.46045,6.20051c-1.95239,6.97857 -5.01147,13.26895 -11.93835,17.82986c-1.41101,-11.78879 -8.03821,-20.37467 -14.31189,-29.1514c-3.86926,-5.41275 -7.83081,-10.70264 -8.21643,-17.84924c-0.16333,-3.02655 -2.56043,-3.96958 -5.55945,-2.87225c-3.43408,1.25646 -5.93066,5.61654 -4.64392,9.09857c1.78577,4.83243 1.8866,9.57348 0.11011,14.34271c-1.96949,5.28741 -4.02161,10.54556 -6.14392,15.77338c-0.48426,1.19287 -1.1593,2.5856 -2.16638,3.24118c-4.42371,2.87954 -6.4563,6.98782 -6.2002,12.06262c0.37219,7.37878 -2.8457,13.27133 -7.50891,18.38901c-4.26087,4.67578 -9.7439,4.61639 -13.97864,-0.0596c-3.1925,-3.52515 -5.76623,-7.61054 -7.65173,-10.14905c5.50134,-5.56012 11.20825,-9.83512 14.92822,-15.43097c5.85742,-8.81116 0.82446,-20.48941 -9.56848,-22.69034c-5.38489,-1.14035 -11.21008,-0.20059 -16.28442,-0.20059c-3.80591,7.25613 -7.61402,12.89132 -9.80799,19.09714c-2.97302,8.40945 -4.70874,17.25637 -7.44787,25.89504c0,0 -0.47315,0.00211 -0.6836,-0.8449c-0.31726,-10.97452 -0.74951,-21.94819 -0.83142,-32.9245c-0.01257,-1.69193 1.31006,-3.61939 2.48071,-5.05939c10.89441,-13.39896 17.31446,-28.57938 18.06299,-45.89429c0.25183,-5.82474 -0.36841,-11.73172 -4.44067,-16.49292c-4.43262,-5.18261 -8.02234,-5.27942 -11.24121,0.6384c-3.52112,6.47293 -5.92078,13.55566 -8.81018,20.37225c-1.36414,3.21823 -4.48938,6.92322 -3.7583,9.55951c1.9945,7.19303 -2.9126,12.84204 -2.69654,19.78067c0.41223,13.2413 -1.42688,26.56152 -2.49109,39.83618c-0.54382,6.784 -0.62036,13.76374 -2.40234,20.24418c-1.67236,6.08178 -3.01514,13.13397 -10.35071,15.89611c-3.92981,1.47968 -6.03113,0.52979 -6.38855,-3.57599c-0.31628,-3.63299 0.01367,-7.31988 0.00537,-10.98285c-0.00927,-4.09814 0.45813,-8.28768 -0.22265,-12.27691c-1.97779,-11.59052 -12.0708,-16.25778 -22.4281,-10.58518c-7.66468,4.19785 -11.22888,11.83237 -15.45935,18.89542c-0.82532,1.37799 -1.94166,2.58167 -3.51136,4.63367c-0.66992,-2.97223 -1.18042,-4.70581 -1.43823,-6.47626c-0.92627,-6.35937 -2.20459,-7.4653 -7.8446,-6.57071c-4.26111,0.67584 -7.09937,4.65878 -6.21521,9.11301c2.36865,11.93225 1.13977,23.34326 -5.84998,33.45605c-2.32226,3.35986 -5.95801,6.29883 -9.64246,8.10791c-4.6737,2.29486 -8.51269,0.07276 -9.35351,-5.16302c-0.80554,-5.01587 -1.23633,-10.31684 -0.51306,-15.30121c1.10974,-7.65051 3.56128,-15.09686 5.00744,-22.71265c0.60486,-3.18457 2.13599,-8.0545 -2.49243,-8.82962c-2.77576,-0.46487 -6.17822,2.54932 -9.21899,4.15161c-0.61597,0.32453 -1.10218,1.28244 -1.25977,2.03018c-1.93371,9.17402 -4.69482,18.28956 -5.45532,27.56666c-1.03393,12.61297 -7.72046,21.45782 -16.89307,28.64062c-4.85583,3.80237 -7.92053,1.53101 -7.57776,-4.90344c0.28199,-5.29419 1.28809,-10.54675 1.66968,-15.8396c0.57422,-7.96747 -1.9209,-15.40039 -9.57544,-18.41638c-3.68738,-1.45276 -7.60131,-2.40387 -11.12902,-4.15387c-1.52955,-0.75879 -2.63794,-2.83234 -3.38465,-4.5492c-0.55554,-1.27765 0.2738,-3.24102 -0.40295,-4.36236c-0.94507,-1.56629 -2.56812,-2.92359 -4.21009,-3.77274c-0.67785,-0.35055 -2.80908,0.56702 -3.1654,1.38998c-2.14429,4.95282 -3.81177,10.00684 -0.22034,15.15027c0.67835,0.9715 1.12207,2.44391 0.97754,3.5979c-0.87549,6.9881 -2.27991,13.92463 -2.84009,20.93177c-0.33252,4.1604 -4.10095,9.11328 2.63843,13.40777c2.29321,-11.7456 4.45215,-22.80353 6.61548,-33.88336c7.27588,0.63184 11.33252,4.54315 10.94641,11.69727c-0.28369,5.25616 -1.4845,10.46484 -2.31177,15.68908c-0.89734,5.66754 -0.78564,11.4361 3.35303,15.65137c4.51721,4.60083 10.53931,4.93872 16.22608,2.19501c3.67529,-1.77319 7.3706,-4.05701 10.1676,-6.96686c4.01794,-4.18018 7.22619,-9.13873 10.80993,-13.80408c0.60889,1.27985 1.17835,2.66193 1.89893,3.96009c3.59485,6.47473 7.11243,8.02099 14.30298,6.80072c8.76184,-1.48682 14.36841,-7.11243 19.42126,-13.99231c0,0 0.34217,0.02356 0.34217,0.02356c0,0 0.34228,-0.0207 0.90478,0.54449c7.20325,4.57654 11.20935,3.17786 13.19702,-4.58679c0.32349,-1.26343 0.78589,-2.49085 1.12757,-3.75024c3.1571,-11.6391 7.30505,-22.93574 14.33264,-32.77094c1.92944,-2.70044 6.10486,-4.81653 9.46899,-5.18204c3.30701,-0.35925 5.27368,2.7233 5.24976,6.74845c-0.03028,5.06018 0.93567,10.11908 1.07153,15.18921c0.23047,8.60266 4.61597,13.0686 13.21204,12.7229c7.51355,-0.30213 12.68725,-4.5188 16.24353,-10.74866c1.94934,-3.41522 3.28393,-7.18146 4.99609,-11.01392c1.18518,3.45166 2.17432,6.79102 3.47925,10.00195c1.27173,3.12885 3.38452,5.42499 7.20251,4.90223c3.71216,-0.50824 5.38904,-2.94446 5.7909,-6.46851c0.28283,-2.47864 0.43176,-4.98065 0.86474,-7.43262c1.92627,-10.91116 3.55823,-21.89477 6.05176,-32.67761c1.50342,-6.50079 5.37146,-11.82232 12.31506,-13.93643c5.32203,-1.62042 9.73951,1.60956 8.95545,7.06699c-0.39795,2.77026 -1.88855,5.7966 -3.80933,7.83731c-2.80664,2.9815 -6.26513,5.47375 -9.78112,7.62671c-3.21107,1.96621 -3.41456,3.93548 -1.49305,6.79522c2.49683,3.71595 4.66736,7.66797 7.34925,11.2399c11.05773,14.72742 24.70825,8.79028 30.64709,-1.70013c1.69934,-3.00168 3.2312,-6.09812 4.8822,-9.2313c14.71167,16.66343 36.14307,12.30521 43.72998,-8.63171c0.31433,-0.86758 0.80884,-1.93964 1.5376,-2.34625c9.17822,-5.12119 12.61389,-13.66983 14.32776,-23.36405c0.23218,-1.31308 0.98608,-3.00708 2.03113,-3.62716c7.2489,-4.30142 14.97729,-5.69348 22.84277,-1.97595c3.71179,1.7543 6.99414,4.41711 10.75134,7.27517c11.47779,12.1803 17.43909,26.9068 19.78919,43.24329c2.50854,17.43951 -2.67114,33.17688 -11.47034,48.64697c-13.32129,21.198 -33.04394,34.25745 -55.71179,43.37573c-9.49939,3.82117 -19.29077,6.91638 -29.61768,10.19428c-0.77368,0.37597 -1.54736,0.75195 -3.12268,0.94311c-0.81433,0.1341 -1.65124,0.18903 -2.43969,0.4137c-37.35608,10.64099 -74.77845,20.95886 -114.66944,23.5932c-4.31799,0.29315 -8.63452,0.8186 -12.9541,0.84399c-50.7655,0.29822 -101.53235,0.41486 -152.29675,0.83539c-13.61902,0.1128 -27.23072,1.09143 -41.75,1.51666c-5.57361,0.52332 -11.14722,1.04657 -17.526,1.25177c-13.48108,1.87238 -27.03089,3.35407 -40.42713,5.70899c-19.91235,3.50043 -39.49756,8.38617 -58.80798,16.30963c-1.61414,0.83734 -3.23743,1.65778 -4.84106,2.51489c-9.04456,4.83399 -18.71387,8.80835 -26.9419,14.77075c-7.60498,5.51093 -14.28125,12.65491 -20.23438,19.9975c-6.23767,7.69348 -10.98449,17.05909 -10.95519,26.97132c0.03662,12.37817 4.4237,23.71631 16.3269,31.41687c13.90015,5.64648 34.34387,0.45971 41.9137,-13.09742c3.92797,-7.03479 -0.45337,-21.07916 -6.9806,-23.04351c-5.65112,-1.70075 -11.29064,0.62805 -14.95275,6.17462c-1.96497,2.97613 -0.37146,9.14197 3.33789,12.91607c4.34717,4.42292 3.9884,6.61628 -2.40552,7.22504c-6.08997,0.57977 -12.36743,-0.80829 -18.83215,-1.95288c-9.03382,-7.77722 -11.52686,-17.88873 -6.29786,-28.66254c1.95459,-4.02758 5.19214,-7.52813 8.24805,-10.90405c4.91333,-5.42785 9.68176,-11.16272 15.3894,-15.65137c7.16272,-5.63299 15.21119,-10.13952 23.62684,-15.19336c10.49426,-3.54974 19.85461,-10.66058 31.68188,-10.07385c0.6947,0.03443 1.43225,-0.58154 2.13342,-0.92816c2.57984,-1.27557 5.02503,-3.12939 7.75135,-3.74579c8.83899,-1.99859 17.73596,-3.83478 26.69177,-5.20105c14.96435,-2.28308 29.9917,-4.1546 45.81665,-6.14477c2.39502,-0.33966 4.79004,-0.67926 8.05823,-0.86847c8.04602,-0.62952 16.08972,-1.75586 24.13855,-1.79401c22.85217,-0.10846 45.7063,0.24805 68.55993,0.38349c27.46753,0.16278 54.93518,0.28625 82.9502,0.52545c0.82788,-0.26129 1.65576,-0.52265 3.19958,-1.43329c7.42395,-0.27558 14.84803,-0.55115 23.14051,-0.68866c5.61438,-0.72492 11.23572,-1.39899 16.84143,-2.18585c10.03979,-1.40906 20.09558,-2.73102 30.0957,-4.38562c7.38501,-1.22193 14.71912,-2.79499 22.02698,-4.4303c7.58545,-1.69739 15.1532,-3.50678 22.65393,-5.54285c8.87866,-2.41015 17.67749,-5.11511 27.12866,-7.82403c0.4696,-0.41706 0.93921,-0.83411 2.1117,-0.86524m-451.60596,-5.83301c0.23328,0.0387 0.46667,0.0774 0.8949,0.91303c1.10583,6.85992 2.28271,14.23944 9.87695,16.58288c7.55139,2.33027 13.54846,-2.1582 18.37793,-7.52044c7.40063,-8.21704 11.07336,-18.24585 12.61499,-29.04517c0.19922,-1.39538 -1.23731,-3.02417 -1.91614,-4.54486c-0.53259,0.15338 -1.06518,0.3067 -1.5979,0.46008c-1.07629,3.81214 -1.59717,7.90601 -3.35486,11.37274c-2.87536,5.67121 -5.9093,11.50696 -10.07593,16.2107c-4.29321,4.84656 -7.49108,3.67895 -9.16296,-2.60602c-1.30408,-4.9024 -2.57031,-9.98083 -2.66418,-15.00317c-0.1731,-9.2779 -0.01148,-18.63031 0.99011,-27.84528c1.40625,-12.9364 3.77881,-25.76544 5.59973,-38.65991c1.22851,-8.69794 2.45471,-17.41138 3.12781,-26.16052c0.14514,-1.88532 -1.62451,-4.84205 -3.33289,-5.73487c-2.74487,-1.43457 -5.53943,0.11899 -6.9292,2.99598c-1.56787,3.24536 -2.84008,6.635 -4.20569,9.97625c-0.73144,1.79016 -1.77636,3.56226 -2.00854,5.42621c-0.75293,6.04047 -1.19373,12.11981 -1.76953,18.18274c-0.01294,0.13684 -0.26904,0.24298 -0.29883,0.38684c-1.07703,5.21515 -2.62158,10.39075 -3.08484,15.6612c-0.58398,6.64178 -0.28332,13.36132 -0.82092,20.03961c-0.3042,-0.01038 -0.60852,-0.01172 -1.25122,-0.76319c-0.42969,-2.54675 -1.87573,-3.22455 -4.47193,-3.32403c-12.89526,-0.49427 -21.51001,8.6615 -26.52905,18.4469c-3.94495,7.6914 -6.6676,16.01031 -9.9176,24.05682c-0.75757,1.87555 -2.40857,4.00665 -2.0188,5.62842c2.38879,9.93793 -3.32556,16.8269 -9.05383,23.20331c-2.08252,2.31805 -7.52564,3.79376 -10.26099,2.70446c-2.47705,-0.98651 -4.48865,-5.91894 -4.69092,-9.23443c-0.36548,-5.9895 0.39588,-12.13312 1.38684,-18.09601c0.99195,-5.97009 3.19385,-11.74286 4.12232,-17.71753c0.32702,-2.10351 -1.01551,-5.90326 -2.54517,-6.50201c-2.00171,-0.78333 -5.03589,0.6051 -7.44128,1.53631c-1.0437,0.40406 -1.98951,1.88495 -2.35865,3.07019c-1.99645,6.40912 -5.92236,11.80103 -5.68591,19.44928c0.30872,9.99268 -0.93359,20.0365 1.40784,29.9524c0.28113,1.19073 0.65442,2.64788 1.50439,3.37133c8.14954,6.9372 14.27503,6.57892 22.69727,1.05841c4.25439,-2.78863 7.22143,-7.53149 10.80737,-11.35614c1.078,-1.14984 1.95471,-3.5075 4.021,-1.16241c7.51575,8.52984 18.43603,7.14319 24.72046,-0.9173c5.82922,-7.47662 9.81433,-16.39111 15.29785,-24.4928m-600.67194,-33.12494c12.36969,-9.57312 20.30402,-21.92486 22.99964,-37.39611c2.09198,-12.00611 -0.09485,-23.51593 -4.67115,-35.34943c-0.51568,-0.69965 -1.03143,-1.39929 -2.07653,-2.53204c-4.89075,-5.65616 -9.7815,-11.31235 -14.93903,-17.53449c-1.59802,0.11667 -3.19611,0.23331 -5.38764,0.802c-6.66656,4.22614 -6.86852,8.35007 -1.65545,14.39017c3.69195,4.27768 6.51672,9.30387 9.56683,14.77298c0.75592,1.6991 1.5119,3.39825 2.5755,5.72357c0.01459,0.45954 0.02918,0.91907 -0.34161,1.7898c0.35876,0.86047 0.71747,1.72088 1.33557,3.47418c-0.12061,4.01892 -0.24121,8.0379 -0.81201,12.20007c-0.04584,0.61884 -0.09161,1.23767 -0.04376,2.54645c-0.13898,0.43799 -0.27796,0.87598 -0.87659,1.44196c-0.08972,0.6181 -0.1795,1.23614 -0.22803,2.5683c-1.24579,2.46264 -2.49164,4.92535 -4.44769,7.31725c-1.44812,-1.00811 -2.89624,-2.01629 -4.97461,-3.38586c-2.61926,-0.80426 -5.22913,-2.26678 -7.85931,-2.30432c-15.44873,-0.22095 -30.90296,-0.02179 -46.35358,-0.159c-5.15631,-0.04577 -8.63953,1.82813 -11.00971,6.88813c-0.54797,0.03955 -1.09594,0.0791 -2.15478,-0.31293c-10.73767,-18.7052 -7.57043,-39.33106 8.29474,-53.42362c7.36304,-6.54037 16.03851,-9.95294 25.89117,-10.38452c6.82068,-0.29876 9.9754,-3.16269 9.67511,-8.69626c-0.28271,-5.20785 -3.44177,-7.46283 -10.32123,-7.26455c-1.99115,0.05734 -4.00939,0.14251 -5.95935,0.51098c-26.32043,4.97321 -42.38842,20.77851 -49.54321,46.71659c-0.04632,0.94085 -0.09268,1.88165 -0.04517,3.67749c-0.13754,1.71081 -0.27511,3.42169 -1.00738,5.39325c0.19333,1.59033 0.38666,3.1806 0.78146,5.604c0.06714,1.71002 0.13425,3.4201 -0.16211,5.4538c0.30869,0.57177 0.61737,1.14349 1.21991,2.46447c2.93302,13.94764 10.40897,25.00855 21.21073,34.12116c1.61163,1.35962 2.53314,3.95581 2.99707,6.14459c0.50702,2.39166 0.44794,5.04089 -0.02429,7.4483c-0.26093,1.33008 -1.66822,3.08515 -2.91462,3.45746c-4.93066,1.47266 -10.05749,2.27808 -15.01281,3.68c-109.67874,31.02868 -170.51072,149.11078 -128.37543,255.99401c7.32886,18.59089 17.20499,35.66504 29.72595,51.20905c3.81037,4.73041 8.46472,5.54224 12.13559,2.43146c3.38037,-2.86469 3.45111,-7.25073 0.16684,-11.5647c-0.90829,-1.19287 -1.88672,-2.33228 -2.79492,-3.52521c-31.79993,-41.7724 -43.92462,-88.76172 -34.41745,-140.27893c18.58267,-100.69556 116.94611,-163.73779 216.62625,-139.7492c12.79279,3.07861 25.09723,7.49603 37.16083,13.75329c-1.85217,5.28528 -3.59076,10.24646 -5.39484,15.39453c-1.1969,-0.44824 -1.98492,-0.66333 -2.70032,-1.02295c-18.55462,-9.32794 -38.25457,-14.5036 -58.91931,-15.92633c-35.01703,-2.41076 -67.44668,5.68805 -97.00165,24.68787c-2.06774,1.32941 -4.17398,4.37494 -4.19317,6.63989c-0.02127,2.51221 1.75381,5.76618 3.78799,7.40314c3.24243,2.60931 6.91138,0.90765 10.16129,-1.13983c32.4295,-20.43054 67.52069,-26.3584 104.95611,-19.0105c12.76514,2.50561 25.00281,6.63251 36.58326,13.11316c-0.45069,1.21448 -0.75287,2.13458 -1.128,3.02386c-7.2301,17.14221 -14.19811,34.40283 -21.84179,51.35883c-2.97241,6.59387 -6.82428,13.03613 -11.42713,18.59363c-7.14837,8.63079 -15.2818,16.44568 -23.39209,25.02368c0,-1.73425 0.00013,-3.31 0,-4.88574c-0.00116,-10.49854 0.05005,-20.99744 -0.02386,-31.49549c-0.04199,-5.96417 -3.04553,-9.10675 -8.28748,-8.97015c-5.00604,0.13037 -7.64325,3.13141 -7.66559,9.02362c-0.05236,13.83124 -0.01837,27.66272 -0.01916,41.49414c-0.0003,5.30109 -0.00006,10.60217 -0.00006,16.48517c-2.23865,0 -4.0257,-0.00012 -5.81281,0.00006c-17.33093,0.00189 -34.66198,-0.04236 -51.99264,0.02887c-6.72772,0.02771 -10.00388,3.53925 -9.16446,9.46564c0.62985,4.44677 3.48517,6.4693 9.6561,6.48834c17.66403,0.05456 35.32834,0.02197 52.99252,0.02362c1.7688,0.00018 3.5376,-0.00006 6.11847,-0.00006c-13.7807,42.59534 -27.29517,84.3678 -40.93445,126.526c-4.63806,-1.9563 -8.65924,-3.53058 -12.57998,-5.32434c-58.93546,-26.96405 -92.32694,-90.27515 -81.29636,-154.05975c4.75372,-27.48841 16.84671,-51.38648 35.18997,-72.26356c4.26993,-4.85974 4.31271,-8.7528 0.42078,-12.12854c-4.04407,-3.50762 -8.25513,-2.8963 -12.50995,1.87842c-23.71213,26.60926 -37.59137,57.64698 -40.64429,93.13922c-6.00015,69.75556 34.09174,134.58198 99.04138,160.94953c2.40882,0.9779 4.8179,1.95508 7.42899,3.01471c-1.95182,5.98303 -3.73905,11.46149 -5.66687,17.37103c-2.89118,-1.0849 -5.36246,-1.95532 -7.79068,-2.93262c-15.24036,-6.1333 -29.28882,-14.31555 -42.28784,-24.36725c-4.5777,-3.53973 -9.14765,-3.10369 -11.91504,0.65113c-3.15873,4.28576 -2.39518,8.53076 2.25595,12.04803c20.00912,15.13147 41.9429,26.51233 66.20251,33.02814c17.14753,4.60547 34.51557,8.38769 51.6753,12.95074c9.46337,2.51661 18.67376,5.97181 28.04614,8.8476c10.04431,3.08197 12.09649,1.98102 15.34418,-8.01276c18.38494,-56.57458 36.77191,-113.14856 55.09887,-169.74194c5.66492,-17.49329 6.75965,-35.19647 3.48127,-53.42969c-1.46857,-8.1676 -1.25159,-16.82269 -0.56159,-25.15405c1.28424,-15.50757 7.26691,-30.10266 9.58765,-45.52319c1.9704,-13.09192 5.81268,-25.94587 9.43335,-38.73328c3.48034,-12.29205 7.76794,-24.35455 11.64355,-36.53607c1.83563,-5.76966 0.93732,-7.70349 -4.73962,-9.85993c-3.52478,-1.3388 -7.1825,-2.32446 -10.76685,-3.51007c-6.69202,-2.21344 -13.32934,-4.60449 -20.07239,-6.64788c-7.15472,-2.16804 -8.6466,-1.24469 -10.86297,5.7351c-0.89685,2.82434 -1.88007,5.6214 -3.24579,8.62036c-0.2666,0.1651 -0.48651,0.37842 -1.35162,0.61658c-1.43226,-0.72101 -2.86457,-1.44202 -4.60077,-2.78564c-0.83979,-0.22004 -1.67963,-0.44007 -3.1258,-0.64191c-0.52081,-0.29596 -1.04156,-0.59192 -1.88513,-1.47235c-0.82068,-0.2016 -1.64142,-0.4032 -3.15692,-0.58472c-11.50714,-3.25397 -23.01434,-6.50793 -34.51355,-10.64197c-0.00324,-4.79583 -0.00647,-9.59173 0.41345,-14.93567m166.55133,301.80268c11.33136,34.76098 22.64356,69.52826 34.0072,104.27862c2.90961,8.89771 4.92792,10.01526 13.97669,7.21094c14.25262,-4.41711 28.43329,-9.06665 42.63745,-13.6394c11.86194,-3.81861 23.61878,-8.00403 35.60053,-11.39704c9.48736,-2.68658 11.69098,-5.82812 8.64428,-15.1839c-5.05108,-15.51062 -10.29852,-30.95886 -15.20367,-46.51519c-7.06336,-22.40082 -13.7558,-44.91919 -20.88794,-67.29767c-3.14807,-9.87793 -7.05115,-19.51319 -10.49652,-29.29901c-4.83692,-13.73816 -8.66034,-27.92456 -14.64527,-41.13642c-4.3457,-9.59326 -11.03924,-18.26483 -17.51794,-26.7091c-6.1925,-8.07123 -15.34357,-13.61573 -19.55518,-23.53943c-7.70098,-18.14557 -15.8471,-36.10187 -23.72192,-54.17444c-2.40021,-5.50861 -4.45007,-11.16895 -6.7868,-16.70642c-2.26758,-5.37366 -5.21064,-10.51795 -6.94483,-16.04895c-3.17242,-10.11829 -5.53814,-20.48676 -8.52801,-30.66638c-1.00934,-3.43634 -3.09266,-6.82178 -7.51874,-5.50403c-12.09235,3.6004 -24.16376,7.31091 -36.04901,11.526c-1.84332,0.65381 -4.12982,4.54126 -3.70154,6.33356c1.76416,7.38244 4.35998,14.58209 6.91364,21.75506c2.18194,6.12903 4.82446,12.09271 7.07727,18.19818c2.12268,5.75305 0.36065,12.39142 3.92523,17.85785c0.16339,0.25061 0.08014,0.65247 0.14801,0.97632c3.4527,16.46845 6.07544,33.16907 10.59289,49.34033c4.82398,17.26856 4.0799,34.16834 1.18964,51.45111c-1.12641,6.73548 -2.08429,14.01252 -0.71814,20.54047c2.5506,12.18738 6.9129,23.99091 10.39539,35.99072c0.95843,3.30261 1.20269,6.82184 2.26495,10.08197c0.99292,3.04749 2.90863,5.79029 3.94434,8.82874c3.69934,10.85211 7.19714,21.77301 10.958,33.44751m300.95447,-258.75165c-3.52612,0.87616 -2.39404,-1.91601 -3.02026,-3.58453c-1.29981,-3.46405 -2.50794,-7.15406 -4.7284,-9.98731c-0.8955,-1.14258 -4.35095,-0.21393 -6.63208,-0.36712c-0.92443,-0.06208 -1.82385,-0.49549 -3.2749,-0.91675c-0.74048,3.71612 -2.3772,7.2846 -1.91406,10.55584c1.02075,7.21143 3.52649,14.21021 4.58765,21.41919c0.63232,4.2956 0.10852,8.90277 -0.66492,13.23243c-1.31909,7.38513 -4.94751,13.66741 -10.9054,18.39599c-1.92492,1.52765 -4.07605,2.77027 -6.12365,4.14331c-1.42017,-2.61889 -3.97608,-5.2243 -4.00733,-7.85974c-0.05334,-4.50073 1.40808,-9.03479 2.36072,-13.52783c0.99158,-4.67664 2.04297,-9.28461 -4.8761,-10.60394c6.56213,-4.2901 6.97925,-13.2345 1.11804,-16.44989c-8.13617,-4.46363 -19.86279,-2.33008 -26.06506,2.80224c-8.76978,7.25702 -14.53961,16.67072 -18.63819,27.09094c-3.28582,8.35389 -4.21453,17.22681 -4.14306,26.15815c0.04388,5.48034 5.35034,12.68512 9.84466,14.58795c7.41181,3.138 13.33503,-0.7804 18.50092,-7.33246c3.60022,-4.56616 6.0542,-10.03613 9.04254,-15.14056c4.59009,8.91809 7.23486,10.8656 15.60907,9.20422c3.63464,-0.72113 7.55713,-2.89075 10.09827,-5.58295c4.40991,-4.67242 7.84765,-10.26251 11.69299,-15.46783c0.40552,-0.07514 0.81091,-0.15021 1.21643,-0.22534c0,10.2821 0.08081,20.56561 -0.10474,30.84442c-0.02246,1.24689 -1.48059,2.46783 -1.68835,2.79101c0.36743,6.22309 0.84888,11.74555 0.97302,17.276c0.10852,4.83472 1.59705,6.66584 6.14673,5.24366c2.21069,-0.69098 4.45654,-3.30756 5.37268,-5.58167c1.13001,-2.80463 1.27234,-6.17132 1.18262,-9.27612c-0.51855,-17.94788 -1.37512,-35.88727 -1.73657,-53.83716c-0.06018,-2.99048 1.7594,-6.0152 2.68677,-9.03137c0.30126,-0.98004 0.57263,-1.97394 0.77893,-2.9776c0.50732,-2.46869 0.40307,-5.263 1.5708,-7.35315c2.20141,-3.94006 5.44348,-7.29743 7.65832,-11.23169c2.18115,-3.87457 5.75855,-5.33612 9.36438,-4.97778c4.44751,0.44195 7.4054,3.87976 8.75342,8.22674c4.06018,13.09314 -0.7898,24.18219 -9.052,33.67914c-3.7041,4.25757 -9.66345,6.53961 -14.55103,9.79089c-1.17822,0.7837 -2.16418,1.85645 -3.23852,2.79627c1.4237,0.68616 2.87316,2.01312 4.26721,1.95727c11.53064,-0.46142 20.62524,-5.24914 27.41211,-14.90399c6.6051,-9.39667 10.05346,-19.50036 9.15039,-30.94153c-0.84326,-10.6828 -5.46546,-18.0213 -13.98316,-20.83007c-8.46167,-2.79041 -17.82397,0.60833 -23.89587,8.67047c-2.05176,2.72418 -3.65259,5.78772 -6.14502,9.12225m304.48523,-124.67248c-0.4978,-1.20905 -1.00354,-2.41498 -1.49243,-3.62763c-6.79456,-16.85239 -22.89502,-27.30835 -39.97363,-25.17227c-20.97889,2.6239 -38.70862,11.2344 -51.08265,29.2457c-4.04077,5.88159 -6.32116,11.93872 -5.73193,19.14764c0.66479,8.13141 4.3855,11.16974 12.48389,9.64801c1.08581,-0.20404 2.14282,-0.56079 3.42639,-0.90381c-6.92749,-12.61358 -5.19946,-24.07837 4.36682,-34.28809c1.93066,-2.0606 5.27124,-2.77642 7.28015,-4.79171c9.6023,-9.63282 21.50952,-9.64658 33.44055,-7.61142c13.07959,2.23105 19.41419,12.1318 23.60718,23.6943c3.22962,8.90598 3.41541,18.10709 3.36096,27.49631c-0.09253,15.92548 -3.73022,30.8645 -10.8612,44.93884c-6.32044,12.47467 -14.84998,22.96814 -28.63184,27.84247c-3.44336,1.2179 -7.06323,1.93622 -11.0199,2.9961c-2.72802,-39.62073 -0.80273,-78.03138 3.02088,-117.46921c-3.83045,0.62039 -7.80786,0.11203 -9.82373,1.86252c-2.98719,2.59408 -5.51343,6.54602 -6.51685,10.37088c-1.05481,4.02096 0.06714,8.57626 -0.02734,12.89224c-0.37891,17.31714 -0.99634,34.62994 -1.25989,51.94836c-0.19995,13.13935 -0.20191,26.29169 0.23633,39.4206c0.06897,2.06713 2.65576,5.38494 4.57373,5.79223c4.75451,1.01001 10.02942,1.71961 14.68005,0.68445c16.89917,-3.76147 30.28076,-13.3327 40.69507,-27.04577c5.19519,-6.84077 10.3894,-13.45398 13.37207,-21.96497c3.77332,-10.76764 6.72022,-21.51593 7.34155,-32.85199c0.5951,-10.85425 -1.76208,-21.30609 -5.46423,-32.25378m-420.43982,209.28497c4.92877,2.93152 9.71582,6.14349 14.8222,8.72363c6.39149,3.22955 11.71668,1.94293 15.73212,-3.27332c2.12323,-2.75823 1.92682,-4.39746 -1.2702,-7.05493c-3.89203,-3.23504 -8.5061,-3.33862 -12.59393,-5.29473c-15.64887,-7.48829 -29.29932,-17.80024 -42.09314,-29.35968c-3.70575,-3.34821 -7.41095,-6.69715 -11.22217,-10.14124c4.54925,-1.94171 8.21612,-3.53211 11.90259,-5.07575c12.25616,-5.13195 23.80542,-11.44097 32.13165,-22.10498c3.9602,-5.07208 8.35284,-9.93542 7.29071,-17.73278c-1.59174,-11.68604 -5.68323,-20.94135 -17.42389,-25.39838c-20.67444,-7.84833 -39.39093,-1.91266 -57.34521,8.33594c-5.46259,3.1181 -10.33393,7.27191 -15.57062,11.01904c5.26617,5.37378 7.41931,5.56433 12.22546,1.60346c3.64295,-3.00226 7.23432,-6.06995 10.94885,-8.9806c1.13691,-0.89086 2.60566,-1.35827 5.34363,-2.73333c-3.46441,15.16723 -1.95031,29.5506 -6.64868,42.40545c0.33502,3.39325 0.91547,6.41809 0.86731,9.43293c-0.07825,4.90405 -0.57452,9.8012 -0.88238,14.70196c-0.74543,11.86926 -1.63434,23.73218 -2.1662,35.61102c-0.29663,6.6258 -0.07605,13.28003 0.06683,19.91816c0.08673,4.03173 1.32049,7.79168 5.77978,8.63812c3.14649,0.59729 6.49775,0.1156 10.43457,0.1156c0,-19.88465 0,-39.18604 0,-59.42688c4.42676,4.59601 7.96601,8.81793 12.05927,12.40814c8.93744,7.83893 18.15643,15.35675 27.61145,23.66315m317.9928,97.3294c-0.50147,6.01392 -1.00293,12.02778 -1.59546,19.13422c3.4685,4.04224 9.01001,6.94849 15.91601,7.13318c2.1919,0.05853 4.85791,1.13403 6.48938,0.24457c8.17359,-4.45594 16.93323,-8.3244 22.58338,-16.20838c2.96081,-4.13134 6.03149,-8.45886 7.68127,-13.17718c1.62,-4.63306 2.02906,-9.87226 2.04065,-14.8476c0.02552,-10.90631 -0.19128,-22.00775 -10.11902,-29.49713c-7.0476,-5.31647 -14.07739,-11.0614 -24.00293,-7.80664c-1.06689,0.34992 -2.31298,0.11481 -3.46301,0.25586c-13.40173,1.64386 -27.09485,8.37115 -31.03686,23.91595c-1.50537,5.93677 1.71509,10.43244 8.07837,10.48176c1.87634,-6.66602 0.60144,-14.90027 9.8424,-18.2002c0.2489,2.57428 -0.10986,5.00971 -0.58349,7.42255c-0.18213,0.92737 -1.10657,1.95392 -0.87879,2.67968c2.91993,9.30292 -0.19043,18.37366 -0.9519,28.46936m284.87683,-32.50555c2.3855,-5.45355 6.44531,-10.8006 6.80054,-16.38336c0.6936,-10.90332 4.24597,-21.50659 2.63379,-32.73547c-0.81958,-5.70789 1.03796,-11.8086 1.7434,-17.7248c0.75342,-6.31958 0.20301,-6.89483 -6.18664,-6.33593c-2.08142,0.18206 -2.95593,0.70788 -3.88599,3.18481c-1.43701,3.82648 -1.99353,7.69971 -2.84668,11.57568c-0.50915,2.31342 -1.33069,4.58753 -1.57348,6.92481c-0.82886,7.98181 -3.60877,15.24212 -7.82898,21.97754c-0.38733,0.61822 -1.88599,1.14892 -2.46814,0.87353c-0.64759,-0.30633 -1.14734,-1.57391 -1.17163,-2.43811c-0.11707,-4.16315 -0.43738,-8.37726 0.05139,-12.48559c0.53784,-4.52112 1.8291,-8.95862 2.89367,-13.40827c0.45887,-1.91864 1.31116,-3.74591 1.73413,-5.66974c0.46912,-2.13336 0.6521,-4.32971 0.97901,-6.63482c-6.53418,-2.232 -10.6604,-1.26197 -12.30689,4.68249c-1.25781,4.54065 -4.57434,8.271 -3.75415,13.85883c0.96058,6.54461 -0.34021,13.39734 -0.35083,20.11682c-0.0072,4.48102 2.17395,7.66968 6.74756,8.92432c4.84009,1.32775 8.38623,-0.09186 10.79981,-4.57502c0.95532,-1.77441 2.32397,-3.32635 4.11865,-5.8399c0.47595,2.01306 1.19226,3.30957 0.979,4.42871c-1.16333,6.10187 -2.03662,12.33398 -3.99804,18.19024c-2.56446,7.65766 -6.38538,14.89869 -14.44971,18.18464c-3.15833,1.2868 -6.85071,1.26269 -10.20874,1.82049c2.37927,4.40515 16.99609,6.03479 21.38513,1.71918c3.58887,-3.52875 6.53125,-7.71509 10.16382,-12.23108m-1251.3674,29.54956c11.14227,-0.00091 22.28482,0.04224 33.42676,-0.01959c6.49795,-0.03601 9.80902,-2.79608 9.88083,-7.99286c0.07327,-5.30451 -3.09925,-7.98413 -9.6597,-8.01715c-8.64753,-0.04352 -17.29544,-0.01215 -25.94318,-0.01148c-18.45959,0.00135 -36.9194,-0.04412 -55.37871,0.03046c-6.78132,0.02735 -10.44903,4.84003 -8.40521,10.71735c1.53178,4.4049 5.10365,5.289 9.17961,5.28937c15.29987,0.00115 30.5997,0.0025 46.8996,0.0039m816.11886,5.06714c1.80188,-0.46936 3.60389,-0.93866 5.47278,-1.42548c-2.6936,-6.27398 -5.67004,-7.76635 -11.3324,-5.73895c-6.95751,2.49115 -13.79687,5.31531 -20.77294,7.75049c-5.22144,1.82257 -10.57837,3.25745 -15.81568,4.84698c0.21143,6.15863 0.81665,6.61499 11.65625,8.28382c-0.88598,4.02545 -1.80383,8.01892 -2.61987,12.03314c-0.19055,0.93768 -0.37756,2.11932 0.01562,2.893c2.57569,5.06836 0.73987,8.31104 -4.01489,10.54499c-0.82629,0.38818 -1.53589,1.02514 -2.37951,1.60193c0.36462,0.66314 0.4934,1.20092 0.83422,1.47082c3.9889,3.15784 5.6864,6.70746 4.56372,12.20465c-0.80273,3.93103 -4.15039,8.01123 -1.05017,12.41657c0.16565,0.23541 -0.64087,1.04095 -0.78503,1.63214c-0.30872,1.26697 -0.8844,2.65088 -0.63916,3.84015c1.21716,5.90277 5.70325,8.3399 13.13135,7.22632c-0.28772,-4.2439 -0.06458,-8.61976 -0.97559,-12.7453c-1.74658,-7.90955 3.92688,-15.16205 1.61963,-23.05591c-0.20532,-0.70264 0.78687,-2.3031 1.59143,-2.66327c4.87915,-2.18451 9.84619,-4.17896 14.82556,-6.13056c1.91065,-0.74878 3.93103,-1.21753 6.81739,-2.09118c-1.5625,-2.45349 -2.34461,-5.34009 -3.99805,-5.98181c-6.15039,-2.38672 -11.97424,-0.59827 -17.59119,4.17077c1.45593,-9.18994 2.71106,-17.11194 3.77197,-23.80847c6.35267,-2.6886 11.61805,-4.91711 17.67456,-7.27484m-838.89453,-64.90796c0.23111,6.53705 2.46134,9.19653 8.44168,9.22809c19.32349,0.10187 38.64807,0.08874 57.97171,-0.00092c5.50278,-0.02551 8.29184,-2.81463 8.36069,-7.75824c0.0683,-4.90325 -2.7449,-8.09686 -8.1051,-8.14093c-19.4892,-0.16021 -38.98062,-0.11474 -58.47076,-0.03692c-3.98679,0.01593 -7.12662,1.64538 -8.19822,6.70892m62.62265,94.00897c-9.98382,-0.00006 -19.96765,-0.00464 -29.95147,0.00122c-8.31971,0.00495 -16.64313,-0.12439 -24.95768,0.0882c-5.06182,0.12939 -7.7489,3.10449 -7.79138,7.85529c-0.04187,4.68182 2.46784,7.92712 7.06281,7.96325c20.13205,0.15833 40.26681,0.17224 60.39865,0.00287c4.83633,-0.04065 7.75839,-4.02295 7.31934,-8.85156c-0.46296,-5.09088 -3.43979,-6.97809 -12.08027,-7.05927m799.89798,30.92267c2.65088,-4.53009 5.30188,-9.06018 8.54419,-14.60077c4.29651,12.32776 7.89038,13.49872 14.42493,6.0423c-4.73804,-2.83734 -5.57666,-7.57337 -5.28052,-12.41534c0.43079,-7.05024 -2.36633,-14.49115 2.32447,-21.16681c0.2705,-0.38489 -1.4712,-3.03467 -2.6543,-3.39691c-1.92432,-0.58942 -4.16114,-0.159 -6.16101,-0.159c-7.30872,33.42975 -8.68054,37.22815 -15.91968,41.30987c-0.11011,-5.16809 -0.85266,-9.74817 -0.16834,-14.10406c1.49231,-9.49878 5.10083,-18.11487 13.32886,-23.98895c-6.66675,-7.27546 -11.71033,-7.24799 -16.28491,0.99017c-3.98169,7.17041 -9.18799,14.211 -7.36646,23.42828c0.75513,3.82117 0.35364,7.88092 1.19642,11.67249c1.53979,6.92651 8.22046,10.16534 14.01635,6.38873m-424.16888,-305.86804c-1.10724,4.26489 -2.21442,8.52985 -3.47186,13.37323c1.0017,-0.79175 1.62133,-1.26013 2.21789,-1.75623c13.87274,-11.53796 27.61298,-23.24054 41.67706,-34.54022c5.67225,-4.55731 12.18311,-8.14484 10.82215,-17.55157c-0.33667,-0.25794 -1.28974,-1.13123 -2.37274,-1.79151c-3.67328,-2.23956 -13.06165,-2.65649 -15.09864,-0.38263c-7.30627,8.15595 -14.65851,16.28797 -21.56982,24.77405c-4.38812,5.38794 -8.02637,11.3866 -12.20404,17.87488m661.54828,230.69787c-2.95948,-10.87774 0.21203,-21.81964 0.0603,-32.7348c-0.20544,-14.75232 3.7583,-29.26977 10.02661,-42.71216c-3.36584,-5.23376 -8.21704,-2.59118 -12.57764,-3.1817c-2.1958,9.58393 -6.48315,18.33191 -6.1333,28.29676c0.12049,3.4342 -1.89929,6.9176 -2.74426,10.42596c-0.29443,1.22253 -0.07666,2.59564 0.04895,3.88623c0.25257,2.5957 0.7804,5.17523 0.8772,7.77332c0.2395,6.43145 -1.52051,12.82965 -0.17371,19.30798c0.88721,4.26831 1.19885,8.659 2.14221,12.91199c0.87122,3.92852 5.93946,6.91424 10.31385,6.55023c-0.55799,-3.2135 -1.11682,-6.43189 -1.84021,-10.52381m-187.6427,55.88953c-0.40821,-4.97101 -4.66614,-10.74219 2.91308,-14.08282c0.08167,-0.03601 -0.07458,-0.61219 -0.12585,-0.93531c-7.90174,-1.17785 -12.09143,-10.72711 -7.45581,-17.35845c0.80249,-1.14808 2.61499,-2.03815 4.0133,-2.11683c0.62244,-0.03497 1.6178,2.16834 2.00159,3.48462c0.40674,1.39472 0.2887,2.94251 0.39978,4.42347c0.6593,0.08386 1.31873,0.16778 1.97815,0.25164c0.5332,-2.14856 1.3446,-4.27124 1.54675,-6.45056c0.56556,-6.09369 -8.91528,-14.12659 -14.93506,-12.81433c-4.28515,0.9342 -9.67468,12.11395 -7.80395,16.93066c1.91443,4.92926 4.1543,9.7663 6.6831,14.40869c1.30848,2.40204 1.0514,2.60657 -1.39453,4.05976c-6.95849,4.13397 -12.83532,9.42828 -11.8623,18.86316c0.45825,4.44208 3.93005,8.19537 8.40161,8.5614c8.17993,0.66943 14.97388,-6.43036 15.64014,-17.2251m26.88769,-11.28259c0.08631,-10.22272 0.07337,-20.44879 0.42285,-30.66248c0.0326,-0.95312 2.43848,-2.69293 3.60389,-2.58404c4.27014,0.39917 5.82849,-2.06043 7.28759,-6.01019c-2.5122,-0.49256 -4.77649,-0.93653 -7.80969,-1.53125c0.52478,-2.25977 0.95606,-4.43012 1.54309,-6.5575c0.59143,-2.14294 1.33765,-4.24335 2.03418,-6.41919c-10.72192,-1.80603 -12.29822,-0.66736 -14.79114,9.61908c-0.90417,3.73144 -1.2926,7.89917 -5.68872,9.68311c-1.70544,0.69213 -3.32812,1.58831 -4.88733,2.34259c0.32544,5.47015 3.38599,5.36474 6.78235,3.83117c0,6.03534 0.02918,11.8949 -0.0188,17.75379c-0.01355,1.65313 -0.0249,3.36328 -0.43237,4.94549c-1.22827,4.76819 1.31555,10.93115 5.68311,13.32184c8.95581,4.90204 16.03369,1.91852 20.61254,-8.55395c-3.63415,1.22088 -7.33434,2.64056 -11.14978,3.604c-0.80981,0.20459 -2.03991,-1.25525 -3.19177,-2.78247m134.63526,-51.53583c2.87536,-6.96863 5.43286,-13.94043 3.57837,-21.74682c-0.74915,-3.15278 -2.19226,-4.70215 -5.53308,-4.95569c-7.49244,-0.56842 -14.35132,3.61804 -17.23499,10.8648c-3.11584,7.8302 -5.52405,15.71674 -5.35669,24.37513c0.16675,8.62554 6.15527,15.5448 14.63599,15.68627c8.22046,0.13715 18.33715,-10.72796 18.45874,-21.07348c-1.44666,1.73266 -2.30933,2.69177 -3.08911,3.71411c-1.97584,2.59058 -3.76758,5.33844 -5.91199,7.7782c-1.88196,2.14093 -3.58533,4.41211 -7.44177,3.10504c-3.76648,-1.27655 -5.18958,-3.49555 -5.45191,-6.88385c4.3092,-3.64545 8.45972,-7.15674 13.34644,-10.86371m98.47192,-34.08069c0.04517,2.13275 0.20886,4.27088 0.11279,6.39722c-0.26355,5.83002 4.3888,13.54016 9.88697,16.20227c4.11828,1.99402 10.45922,0.22064 14.90857,-4.81384c2.81604,-3.18647 5.11218,-6.88446 7.28015,-10.56574c0.86584,-1.46979 0.75976,-3.5119 1.09594,-5.29352c-4.07214,4.45319 -6.81018,9.25458 -10.54089,13.09027c-4.94653,5.08527 -8.72656,3.60926 -11.0675,-3.11328c-1.43824,-4.13012 2.32019,-4.59094 3.90576,-6.43969c3.57751,-4.17121 8.8424,-7.43164 10.97021,-12.16443c2.30347,-5.12372 1.828,-11.4986 2.5459,-17.33008c0.06165,-0.50091 0.19751,-1.2132 -0.06225,-1.49976c-3.46387,-3.8208 -12.67042,-3.36523 -16.61475,0.09729c-7.49194,6.5766 -10.73645,15.09357 -12.4209,25.43329m-29.21399,-2.09857c-0.02637,-2.06439 0.7655,-4.7522 -0.23926,-6.07123c-2.56347,-3.36511 -6.27942,-2.09185 -9.30859,-0.45959c-2.74255,1.47778 -3.65625,3.73163 -2.59021,7.30737c3.26184,10.94104 7.6814,21.65076 6.8479,33.56439c-0.11877,1.69934 3.79358,3.9726 6.20312,5.34125c0.56592,0.32141 2.77942,-1.79993 3.92798,-3.07397c1.56421,-1.73499 2.99817,-3.63703 4.19751,-5.64124c3.12281,-5.2182 7.06507,-10.21393 8.90198,-15.87543c3.35657,-10.34442 5.43006,-21.10522 8.21399,-32.40387c-3.35449,-0.63238 -5.7782,-1.08935 -8.23035,-1.55163c-4.58459,31.43738 -6.45886,38.27929 -12.27636,43.3764c-1.89502,-8.13232 -3.70569,-15.90332 -5.64771,-24.51245m100.12427,-19.37341c0.11157,-1.68482 0.95581,-4.31128 0.20862,-4.8927c-3.38587,-2.63489 -2.99573,-6.2121 -3.50891,-9.71045c-0.1897,-1.2923 -1.45118,-3.37079 -2.32813,-3.42572c-1.93311,-0.1211 -4.96814,-1.14563 -5.15161,2.72858c-0.05798,1.22052 -0.58801,2.49218 -1.16809,3.60137c-2.12195,4.05805 -4.35596,8.05744 -6.54785,12.07892c-0.58435,-0.2821 -1.16858,-0.56415 -1.75281,-0.84625c0.46472,-2.88763 0.39075,-6.00677 1.51086,-8.61267c2.07495,-4.82684 -0.3385,-5.86566 -4.2528,-6.11932c-1.64307,-0.10645 -3.29883,-0.0177 -5.37366,-0.0177c-0.85523,3.69329 -2.29041,7.26611 -2.4054,10.88092c-0.34338,10.79333 -0.24133,21.60351 -0.16516,32.40612c0.03516,4.98957 4.20545,8.43622 10.2378,8.3396c-3.83802,-14.12353 1.81933,-26.05603 8.82043,-39.03497c1.4082,1.88678 2.13489,3.21997 3.18848,4.203c2.81775,2.62934 6.35669,2.17151 8.68823,-1.57873m-1189.37958,173.26996c6.98905,-0.01758 13.98459,0.14276 20.96503,-0.11109c5.23276,-0.19037 8.24328,-3.46252 8.18277,-8.16461c-0.05881,-4.5697 -2.89575,-7.6344 -7.99393,-7.71906c-11.31189,-0.18786 -22.63165,-0.17944 -33.94321,0.02558c-4.76846,0.08636 -7.48898,3.10547 -7.647,7.51294c-0.16428,4.5838 2.61578,7.88873 7.46823,8.28021c3.96982,0.32038 7.98029,0.13641 12.96811,0.17603m26.73688,-215.40638c-2.30618,-0.70398 -4.60034,-1.96594 -6.9206,-2.01593c-10.28729,-0.22174 -20.58221,-0.12701 -30.87411,-0.08337c-6.09064,0.02582 -9.29147,2.76447 -9.36316,7.84326c-0.0723,5.11835 3.13413,8.08985 9.13831,8.14026c10.29138,0.08643 20.58462,0.09686 30.87585,0.00403c8.56442,-0.07721 11.72281,-5.65497 7.14371,-13.88825m358.50043,-135.86645c0.82086,-1.42938 1.7077,-2.82538 2.45092,-4.29407c2.74036,-5.41553 6.03156,-10.65051 7.97718,-16.34253c1.98114,-5.79553 -3.84076,-11.24255 -9.49439,-8.84564c-3.05633,1.29578 -6.19262,4.52972 -7.40564,7.62817c-3.044,7.77527 -5.57452,15.8556 -7.25769,24.03046c-1.71222,8.3158 -3.75976,16.89142 -0.28827,25.35248c4.55164,-9.01416 9.07318,-17.96869 14.01789,-27.52887m671.27252,208.78754c1.8717,6.78509 -4.07422,14.05145 1.25207,20.64483c0.12464,0.15424 -0.2301,0.62744 -0.19763,0.93457c0.73071,6.91425 4.60852,10.47211 11.34021,9.43823c-0.46997,-3.7517 -1.56189,-7.53241 -1.27612,-11.20587c0.6073,-7.80621 1.49853,-15.65087 3.15979,-23.2868c0.7373,-3.38904 -0.18543,-4.49664 -2.78137,-5.51984c-6.09949,-2.40423 -8.30103,-1.32226 -10.12207,4.96851c-0.31226,1.0791 -0.73633,2.12585 -1.37488,4.02637m-927.22714,30.30114c2.57775,-6.44006 0.68655,-11.61639 -4.99448,-12.38019c-4.05393,-0.54498 -8.45432,-0.83496 -12.29782,0.22291c-2.41721,0.66522 -5.34903,3.8247 -5.74677,6.24383c-0.40243,2.44824 1.3526,6.14948 3.37567,7.89929c3.5221,3.04627 15.23658,1.66913 19.6634,-1.98584m94.09951,-121.57183c0.0022,2.31994 -0.0736,4.64312 0.02265,6.95916c0.21313,5.13233 3.2467,8.2959 7.90668,8.36371c4.80694,0.06995 7.80273,-2.90039 8.04778,-8.12634c0.11634,-2.48035 0.06989,-4.97125 0.01948,-7.45581c-0.11817,-5.81537 -2.71015,-8.79688 -7.71558,-8.95203c-5.09485,-0.15802 -7.59637,2.35382 -8.28101,9.21131m583.80036,-94.40247c1.6112,-2.0625 3.69348,-3.91266 4.73828,-6.23053c2.38049,-5.28088 -0.97339,-10.05505 -6.59717,-8.95471c-3.37976,0.66137 -6.55603,3.00574 -9.49206,5.06628c-1.96705,1.38043 -3.35206,3.58997 -5.01941,5.45301c4.64123,7.1065 8.17932,9.45611 16.37036,4.66595m317.51269,-92.65027c5.40796,0.17188 9.92554,-1.51868 13.10376,-6.14218c2.52954,-3.67954 2.80457,-7.94629 0.11035,-10.98178c-1.27966,-1.44174 -5.54162,-1.07272 -8.13293,-0.3606c-8.54517,2.34845 -11.3728,11.43497 -5.08118,17.48456m-54.84839,258.0799c1.12,-3.21668 1.87976,-6.62238 3.44483,-9.60566c2.31921,-4.42089 1.26794,-6.47741 -3.60669,-6.90814c-1.62708,-0.1438 -3.23438,-0.73724 -4.84778,-0.72589c-0.95862,0.00671 -2.37842,0.53461 -2.78516,1.27228c-1.62097,2.94141 0.79651,15.49951 3.45606,17.38489c0.59839,0.42413 2.34705,-0.77448 4.33874,-1.41748z" id="svg_1"/>
  <path stroke="null" fill="#ffffff" d="m28.66412,13.56951c0.61738,-2.40439 2.11785,-3.88033 4.57572,-4.34474c0.18209,-0.03441 0.37056,-0.04236 0.5565,-0.04772c0.64242,-0.01852 0.93742,0.19206 0.96382,0.67838c0.02804,0.51674 -0.26655,0.78418 -0.90349,0.81208c-0.92007,0.0403 -1.7302,0.35898 -2.41778,0.96973c-1.48153,1.316 -1.7773,3.2421 -0.74391,5.04112c0.08464,0.11475 0.13862,0.17721 0.24748,0.30322c0,-0.16335 0,-0.24599 0,-0.32863c0.1444,-0.47017 0.46967,-0.64516 0.95118,-0.64089c1.44282,0.01281 2.88597,-0.00579 4.32862,0.01485c0.24561,0.00351 0.48933,0.14008 0.77082,0.26678c0.09534,0.24364 0.15379,0.43568 0.237,0.7091c0.11151,-0.19002 0.18424,-0.31396 0.25697,-0.4379c0.11634,-0.22997 0.23268,-0.45994 0.36728,-0.74046c0.02749,-0.10078 0.03672,-0.15101 0.04595,-0.20123c0.01297,-0.04091 0.02595,-0.08181 0.05312,-0.17323c0.0201,-0.10056 0.02602,-0.15061 0.03194,-0.20064c0.01126,-0.3753 0.02252,-0.7506 0.02767,-1.19703c-0.03162,-0.14466 -0.05712,-0.21817 -0.08262,-0.29169c-0.00137,-0.04291 -0.00273,-0.08582 -0.0152,-0.19075c-0.07884,-0.22302 -0.14657,-0.38402 -0.2143,-0.54503c-0.29993,-0.43816 -0.56372,-0.90752 -0.90848,-1.30698c-0.48681,-0.56404 -0.46795,-0.94914 0.21168,-1.35976c0.19504,-0.01267 0.33299,-0.00937 0.47094,-0.00607c0.45671,0.52819 0.91342,1.05638 1.39628,1.63536c0.07077,0.11778 0.11539,0.18475 0.16002,0.25172c0.43509,1.03897 0.6393,2.11379 0.44395,3.23495c-0.25172,1.44475 -0.99265,2.59818 -2.19941,3.5305c-0.03033,0.50509 -0.00902,0.97182 0.01229,1.43856c1.07457,0.30387 2.14914,0.60773 3.27549,0.93313c0.12557,0.04357 0.19937,0.06561 0.27316,0.08765c0.04863,0.02764 0.09726,0.05528 0.19515,0.10364c0.12318,0.04627 0.1971,0.07182 0.27102,0.09736c0.13375,0.06733 0.2675,0.13466 0.46049,0.21505c0.07495,-0.02073 0.09065,-0.05454 0.10636,-0.08834c0.08815,-0.26235 0.17997,-0.52355 0.26372,-0.78729c0.20697,-0.65179 0.34629,-0.73802 1.01441,-0.53556c0.62968,0.19082 1.24949,0.4141 1.87441,0.6208c0.33472,0.11072 0.67628,0.20276 1.00544,0.32778c0.53013,0.20137 0.61401,0.38196 0.4426,0.92075c-0.36191,1.13754 -0.7623,2.26397 -1.0873,3.41183c-0.33811,1.19412 -0.69691,2.39446 -0.88091,3.61701c-0.21672,1.44001 -0.77539,2.80294 -0.89532,4.25107c-0.06443,0.778 -0.0847,1.58624 0.05244,2.34895c0.30614,1.70266 0.20391,3.35583 -0.32509,4.9894c-1.71142,5.28484 -3.42844,10.56786 -5.14527,15.85094c-0.30328,0.93324 -0.49492,1.03605 -1.43288,0.74825c-0.87522,-0.26855 -1.73531,-0.5912 -2.61902,-0.82621c-1.60242,-0.42611 -3.22429,-0.7793 -4.82557,-1.20937c-2.26542,-0.60846 -4.31366,-1.67124 -6.18216,-3.08425c-0.43433,-0.32845 -0.50564,-0.72486 -0.21067,-1.12508c0.25843,-0.35063 0.68518,-0.39135 1.11266,-0.0608c1.21388,0.93865 2.52576,1.70273 3.94895,2.27548c0.22675,0.09126 0.45753,0.17254 0.72751,0.27386c0.18002,-0.55185 0.34692,-1.06344 0.52919,-1.62215c-0.24383,-0.09895 -0.4688,-0.1902 -0.69374,-0.28152c-6.06516,-2.46227 -9.80905,-8.51593 -9.24874,-15.02988c0.28509,-3.31436 1.58117,-6.21274 3.79547,-8.69758c0.39733,-0.44588 0.79057,-0.50296 1.16821,-0.17541c0.36344,0.31524 0.35944,0.67878 -0.03929,1.13259c-1.71294,1.94956 -2.84222,4.18122 -3.28613,6.74816c-1.03006,5.95637 2.08812,11.86852 7.59166,14.3865c0.36613,0.16751 0.74164,0.31452 1.17475,0.4972c1.27367,-3.93684 2.53569,-7.83766 3.82256,-11.81532c-0.24101,0 -0.40618,0.00002 -0.57136,0.00001c-1.64953,-0.00015 -3.29907,0.00289 -4.94858,-0.00221c-0.57626,-0.00178 -0.84289,-0.19065 -0.90171,-0.6059c-0.07839,-0.55342 0.22755,-0.88134 0.8558,-0.88393c1.61838,-0.00665 3.2368,-0.00252 4.85521,-0.0027c0.16688,-0.00002 0.33376,-0.00001 0.54282,-0.00001c0,-0.54937 -0.00002,-1.0444 0.00001,-1.53943c0.00007,-1.29161 -0.0031,-2.58323 0.00179,-3.87483c0.00209,-0.55023 0.24836,-0.83047 0.71583,-0.84265c0.48951,-0.01276 0.76999,0.28071 0.77391,0.83766c0.0069,0.98033 0.00212,1.96075 0.00223,2.94113c0.00001,0.14715 0,0.29429 0,0.45624c0.75736,-0.80104 1.51688,-1.53081 2.18441,-2.33678c0.42983,-0.51897 0.78952,-1.12057 1.06709,-1.73632c0.71379,-1.58339 1.36448,-3.19524 2.03964,-4.79602c0.03503,-0.08304 0.06325,-0.16896 0.10534,-0.28238c-1.08141,-0.60518 -2.2242,-0.99056 -3.41624,-1.22454c-3.49582,-0.68617 -6.77272,-0.13261 -9.80107,1.77525c-0.30348,0.1912 -0.6461,0.3501 -0.94889,0.10644c-0.18996,-0.15286 -0.35572,-0.45673 -0.35373,-0.69132c0.00179,-0.21151 0.19848,-0.49591 0.39157,-0.62005c2.75992,-1.77425 5.78828,-2.53054 9.05826,-2.30542c1.92973,0.13286 3.76936,0.61617 5.50204,1.48724c0.06681,0.03358 0.14039,0.05367 0.25216,0.09553c0.16847,-0.48074 0.33082,-0.94403 0.50378,-1.43758c-1.12653,-0.58432 -2.27555,-0.99683 -3.47017,-1.28432c-9.30839,-2.24012 -18.49382,3.64693 -20.22912,13.05014c-0.8878,4.81081 0.24443,9.19879 3.21399,13.09961c0.08481,0.1114 0.17618,0.2178 0.261,0.32919c0.30669,0.40285 0.30009,0.81243 -0.01558,1.07994c-0.3428,0.29049 -0.77743,0.21468 -1.13325,-0.22706c-1.16924,-1.45154 -2.0915,-3.04597 -2.77589,-4.78203c-3.9347,-9.98103 1.74594,-21.00784 11.98803,-23.90538c0.46274,-0.13091 0.9415,-0.20613 1.40193,-0.34365c0.11639,-0.03477 0.24781,-0.19866 0.27217,-0.32287c0.0441,-0.22481 0.04962,-0.4722 0.00227,-0.69554c-0.04332,-0.20439 -0.12938,-0.44683 -0.27987,-0.5738c-1.0087,-0.85096 -1.70682,-1.88386 -1.99048,-3.24698c-0.02991,-0.10701 -0.05006,-0.15336 -0.07021,-0.19971c-0.00627,-0.15969 -0.01253,-0.31938 -0.02058,-0.55661c-0.00641,-0.20841 -0.01104,-0.33926 -0.01567,-0.47012c0.01285,-0.15976 0.0257,-0.31953 0.05085,-0.54376c0.02243,-0.14189 0.03255,-0.2193 0.04266,-0.29671m3.78405,4.54615c0,0.67902 0,1.35803 0,2.05478c1.08618,0 2.11878,0 3.17749,0c0,-0.88525 0,-1.76025 0,-2.63046c-1.0686,0 -2.10169,0 -3.17748,0c0,0.18292 0,0.33496 -0.00001,0.57568z" id="svg_2"/>
  <path stroke="null" fill="#ffffff" d="m52.87179,47.11289c-0.34248,-1.05379 -0.66911,-2.07361 -1.01457,-3.08701c-0.09672,-0.28374 -0.27561,-0.53987 -0.36833,-0.82445c-0.0992,-0.30444 -0.12201,-0.63307 -0.21151,-0.94148c-0.3252,-1.12057 -0.73257,-2.22282 -0.97075,-3.36091c-0.12757,-0.6096 -0.03813,-1.28915 0.06706,-1.91812c0.2699,-1.61391 0.33938,-3.19205 -0.11109,-4.80464c-0.42185,-1.51011 -0.66677,-3.06966 -0.98919,-4.60753c-0.00634,-0.03024 0.00144,-0.06777 -0.01382,-0.09117c-0.33287,-0.51047 -0.16833,-1.13038 -0.36655,-1.66761c-0.21037,-0.57014 -0.45714,-1.12705 -0.66089,-1.69939c-0.23847,-0.66983 -0.48087,-1.34215 -0.64561,-2.03154c-0.03999,-0.16737 0.17353,-0.53039 0.34566,-0.59144c1.10988,-0.39362 2.23713,-0.74011 3.36635,-1.07633c0.41332,-0.12305 0.60786,0.19309 0.70212,0.51398c0.2792,0.9506 0.50012,1.91883 0.79637,2.86371c0.16194,0.5165 0.43677,0.99689 0.64853,1.49869c0.21821,0.5171 0.40963,1.04568 0.63377,1.56009c0.73537,1.68766 1.49608,3.36447 2.21521,5.05895c0.39329,0.9267 1.24784,1.44446 1.82611,2.19817c0.605,0.78855 1.23006,1.59832 1.63587,2.49416c0.55889,1.23376 0.91593,2.55852 1.36761,3.84142c0.32174,0.91382 0.68622,1.81359 0.98019,2.73602c0.66602,2.08976 1.29097,4.19258 1.95057,6.28443c0.45806,1.45269 0.94807,2.89529 1.41976,4.34371c0.28451,0.87367 0.07873,1.16703 -0.80723,1.41791c-1.11889,0.31685 -2.21677,0.70769 -3.32447,1.06428c-1.32642,0.42702 -2.65065,0.8612 -3.98159,1.27368c-0.845,0.26187 -1.03347,0.15751 -1.30518,-0.67338c-1.06117,-3.24508 -2.11753,-6.49174 -3.1844,-9.77421z" id="svg_3"/>
  <path stroke="null" fill="#ffffff" d="m9.55119,39.70056c-1.47543,-0.00013 -2.90417,-0.00026 -4.33291,-0.00036c-0.38062,-0.00003 -0.71417,-0.08259 -0.85722,-0.49393c-0.19086,-0.54884 0.15164,-0.99826 0.7849,-1.00081c1.72378,-0.00696 3.4476,-0.00272 5.17141,-0.00284c0.80755,-0.00006 1.61511,-0.00299 2.42264,0.00107c0.61263,0.00308 0.90889,0.25331 0.90205,0.74866c-0.00671,0.48529 -0.3159,0.74303 -0.9227,0.74639c-1.04046,0.00577 -2.08098,0.00174 -3.16817,0.00183z" id="svg_12"/>
  <path stroke="null" fill="#ffffff" d="m7.47568,34.07826c0.09542,-0.43864 0.38863,-0.5908 0.76093,-0.59229c1.82004,-0.00727 3.6402,-0.01151 5.46015,0.00345c0.50055,0.00412 0.76325,0.30234 0.75688,0.76022c-0.00643,0.46165 -0.26688,0.7221 -0.78074,0.72448c-1.80449,0.00837 -3.60907,0.0096 -5.41355,0.00009c-0.55846,-0.00295 -0.76672,-0.2513 -0.78366,-0.89595z" id="svg_14"/>
  <path stroke="null" fill="#ffffff" d="m13.36306,42.89129c0.76271,0.00756 1.04069,0.18379 1.08392,0.65919c0.041,0.45091 -0.23187,0.82279 -0.6835,0.82658c-1.87996,0.01582 -3.7602,0.01452 -5.64018,-0.00027c-0.42909,-0.00337 -0.66345,-0.30643 -0.65954,-0.74363c0.00397,-0.44364 0.25489,-0.72146 0.72758,-0.73355c0.77643,-0.01985 1.5537,-0.00777 2.33061,-0.00824c0.93231,-0.00055 1.86463,-0.00012 2.84111,-0.00009z" id="svg_17"/>
  <path stroke="null" fill="#ffffff" d="m48.41493,17.18051c0.38064,-0.57024 0.72039,-1.13041 1.13016,-1.63355c0.6454,-0.79245 1.33197,-1.55184 2.01425,-2.31346c0.19022,-0.21234 1.06693,-0.1734 1.40995,0.03573c0.10113,0.06166 0.19013,0.14321 0.22157,0.1673c0.12709,0.87842 -0.48091,1.21344 -1.0106,1.63901c-1.31334,1.05519 -2.59644,2.14801 -3.89191,3.22545c-0.05571,0.04633 -0.11357,0.09007 -0.20711,0.164c0.11742,-0.45229 0.22081,-0.85056 0.3337,-1.28448z" id="svg_21"/>
  <path stroke="null" fill="#ffffff" d="m12.44695,49.10503c-0.4193,-0.0037 -0.79381,0.01348 -1.16452,-0.01644c-0.45313,-0.03656 -0.71274,-0.34518 -0.6974,-0.77323c0.01476,-0.41158 0.26881,-0.69351 0.7141,-0.70158c1.0563,-0.01915 2.11337,-0.01993 3.1697,-0.00239c0.47608,0.00791 0.741,0.2941 0.74649,0.72083c0.00565,0.43909 -0.27548,0.74466 -0.76413,0.76243c-0.65185,0.02371 -1.30511,0.00873 -2.00424,0.01037z" id="svg_31"/>
  <path stroke="null" fill="#ffffff" d="m15.01527,29.01589c0.40252,0.74279 0.10758,1.26365 -0.69219,1.27086c-0.96102,0.00867 -1.92223,0.00769 -2.88327,-0.00038c-0.56069,-0.00471 -0.86011,-0.28219 -0.85336,-0.76016c0.00669,-0.47427 0.3056,-0.73001 0.87436,-0.73242c0.96108,-0.00408 1.92245,-0.01292 2.8831,0.00779c0.21667,0.00467 0.43091,0.12251 0.67136,0.21431z" id="svg_32"/>
  <path stroke="null" fill="#ffffff" d="m48.44811,16.33054c-0.44199,0.86448 -0.86422,1.70068 -1.28927,2.54244c-0.32418,-0.79012 -0.13297,-1.59093 0.02692,-2.36748c0.15718,-0.76339 0.39349,-1.51795 0.67774,-2.24403c0.11327,-0.28934 0.40615,-0.59133 0.69156,-0.71234c0.52795,-0.22383 1.07161,0.28483 0.88661,0.82603c-0.18169,0.53154 -0.48903,1.02039 -0.74493,1.52611c-0.0694,0.13715 -0.15222,0.26751 -0.24863,0.42927z" id="svg_33"/>
  <path stroke="null" fill="#ffffff" d="m24.54504,38.65596c-0.39226,0.31433 -1.48618,0.44293 -1.81509,0.15847c-0.18892,-0.1634 -0.35281,-0.50903 -0.31523,-0.73766c0.03714,-0.2259 0.31092,-0.52094 0.53665,-0.58306c0.35892,-0.09879 0.76984,-0.07171 1.1484,-0.02082c0.53051,0.07133 0.70711,0.5547 0.44527,1.18307z" id="svg_36"/>
  <path stroke="null" fill="#ffffff" d="m33.35357,27.2343c0.06379,-0.59837 0.29739,-0.83294 0.77316,-0.81818c0.46742,0.01449 0.70947,0.29291 0.7205,0.83596c0.00471,0.23201 0.00905,0.46462 -0.00182,0.69624c-0.02288,0.48801 -0.30264,0.76539 -0.75152,0.75886c-0.43516,-0.00633 -0.71844,-0.30175 -0.73835,-0.78102c-0.00899,-0.21628 -0.00191,-0.43322 -0.00197,-0.69186z" id="svg_37"/>
  <path stroke="null" fill="#ffffff" d="m37.28854,20.40201c-0.02169,-0.42565 -0.04299,-0.89238 -0.03242,-1.37188c0.03219,0.43509 0.03249,0.88294 0.03242,1.37188z" id="svg_43"/>
  <path stroke="null" fill="#ffffff" d="m37.45389,16.56158c-0.03957,0.12724 -0.1123,0.25119 -0.22381,0.44121c-0.08321,-0.27341 -0.14166,-0.46546 -0.20757,-0.69222c0.12776,0.05942 0.26299,0.15357 0.43138,0.25101z" id="svg_44"/>
  <path stroke="null" fill="#ffffff" d="m28.54284,14.42215c0.0324,0.11868 0.03703,0.24954 0.03402,0.41905c-0.02568,-0.10986 -0.04374,-0.25836 -0.03402,-0.41905z" id="svg_47"/>
  <path stroke="null" fill="#ffffff" d="m37.46258,10.32557c-0.12549,0.02313 -0.26345,0.01983 -0.43077,0.01139c0.11985,-0.01603 0.26908,-0.02692 0.43077,-0.01139z" id="svg_48"/>
  <path stroke="null" fill="#ffffff" d="m37.69335,13.06109c0.07529,0.12472 0.14302,0.28573 0.20749,0.47951c-0.07386,-0.12589 -0.14445,-0.28456 -0.20749,-0.47951z" id="svg_49"/>
  <path stroke="null" fill="#ffffff" d="m28.63874,13.57839c0.01526,0.06853 0.00515,0.14593 -0.02167,0.24791c-0.01236,-0.06331 -0.00804,-0.15116 0.02167,-0.24791z" id="svg_51"/>
  <path stroke="null" fill="#ffffff" d="m37.9124,13.77979c0.04349,0.05432 0.069,0.12784 0.0885,0.2308c-0.0395,-0.0509 -0.073,-0.13125 -0.0885,-0.2308z" id="svg_52"/>
  <path stroke="null" fill="#ffffff" d="m30.90399,16.65413c0.03847,0.08147 0.03847,0.1641 0.03847,0.32746c-0.10886,-0.12601 -0.16283,-0.18847 -0.22362,-0.28307c0.04434,-0.03583 0.09551,-0.03952 0.18515,-0.04438z" id="svg_54"/>
  <path stroke="null" fill="#ffffff" d="m37.87882,15.62917c0.01224,0.04425 0.00301,0.09448 -0.02641,0.16192c-0.01181,-0.04051 -0.00343,-0.09822 0.02641,-0.16192z" id="svg_55"/>
  <path stroke="null" fill="#ffffff" d="m28.58988,15.45182c0.03712,0.03124 0.05726,0.07759 0.07346,0.14961c-0.03278,-0.02772 -0.0616,-0.08111 -0.07346,-0.14961z" id="svg_56"/>
  <path stroke="null" fill="#ffffff" d="m40.82175,21.43658c-0.05872,0.00525 -0.13252,-0.01679 -0.22565,-0.06129c0.0573,-0.00365 0.13394,0.01518 0.22565,0.06129z" id="svg_57"/>
  <path stroke="null" fill="#ffffff" d="m37.96432,15.256c0.0151,0.04335 0.00918,0.09339 -0.0153,0.16174c-0.01428,-0.03948 -0.01001,-0.09726 0.0153,-0.16174z" id="svg_58"/>
  <path stroke="null" fill="#ffffff" d="m41.2888,21.63579c-0.05973,0.00353 -0.13365,-0.02202 -0.22851,-0.06914c0.05748,-0.00103 0.1359,0.01952 0.22851,0.06914z" id="svg_59"/>
  <path stroke="null" fill="#ffffff" d="m39.03521,12.20605c-0.0485,-0.03394 -0.09312,-0.10091 -0.13917,-0.19847c0.04673,0.03476 0.09489,0.1001 0.13917,0.19847z" id="svg_60"/>
  <path stroke="null" fill="#ffffff" d="m41.85015,21.80043c0.00398,0.02495 -0.01172,0.05875 -0.05436,0.08058c-0.01076,-0.0364 0.00978,-0.05632 0.05436,-0.08058z" id="svg_64"/>
  <g stroke="null" id="svg_46">
   <path transform="rotate(13.1723 166.338 13.5283)" stroke="null" fill="#ffffff" d="m155.07037,22.58871c-0.68687,1.00813 -1.50416,1.8282 -2.78141,2.04493c-1.04819,0.17788 -1.56096,-0.04752 -2.085,-0.99137c-0.10504,-0.18924 -0.18805,-0.39071 -0.27681,-0.57728c-0.52242,0.68009 -0.99009,1.40291 -1.5758,2.01227c-0.40773,0.42418 -0.94641,0.7571 -1.48217,1.01559c-0.82898,0.39996 -1.70685,0.35071 -2.36534,-0.31997c-0.60331,-0.61448 -0.61959,-1.45538 -0.48878,-2.28156c0.12059,-0.76156 0.29564,-1.52085 0.337,-2.28706c0.05628,-1.04288 -0.53507,-1.61305 -1.5957,-1.70516c-0.31536,1.61515 -0.63007,3.2271 -0.96436,4.9393c-0.98242,-0.62602 -0.43309,-1.34802 -0.38461,-1.9545c0.08166,-1.02146 0.28639,-2.03262 0.41401,-3.0513c0.02107,-0.16822 -0.04361,-0.38286 -0.1425,-0.52448c-0.52354,-0.74978 -0.28046,-1.48652 0.03212,-2.20851c0.05194,-0.11997 0.36262,-0.25372 0.46143,-0.20262c0.23936,0.12378 0.47595,0.32164 0.61372,0.54997c0.09865,0.16346 -0.02224,0.44967 0.05874,0.63592c0.10885,0.25027 0.27042,0.55254 0.49339,0.66315c0.51425,0.2551 1.0848,0.39375 1.62232,0.60553c1.11583,0.43965 1.47955,1.52318 1.39585,2.68463c-0.05563,0.77156 -0.20229,1.53724 -0.2434,2.309c-0.04997,0.93797 0.39679,1.26908 1.10464,0.71479c1.33713,-1.04706 2.31185,-2.33641 2.46257,-4.17505c0.11086,-1.35236 0.51336,-2.68116 0.79524,-4.0185c0.02297,-0.109 0.09385,-0.24864 0.18364,-0.29595c0.44326,-0.23357 0.93925,-0.67296 1.34389,-0.6052c0.6747,0.11299 0.4515,0.8229 0.36333,1.28713c-0.21081,1.11018 -0.56818,2.19566 -0.72995,3.31091c-0.10543,0.72659 -0.04264,1.49933 0.07479,2.23051c0.12257,0.76324 0.68219,1.08716 1.3635,0.75263c0.5371,-0.26372 1.06709,-0.69214 1.40562,-1.18192c1.01892,-1.47418 1.19806,-3.13761 0.85277,-4.87701c-0.12889,-0.64931 0.28486,-1.22992 0.90601,-1.32844c0.82217,-0.13041 1.00851,0.03081 1.14354,0.95784c0.03758,0.25809 0.112,0.5108 0.20966,0.94407c0.22882,-0.29913 0.39155,-0.47459 0.51186,-0.67547c0.61669,-1.02961 1.13626,-2.14252 2.25357,-2.75446c1.50982,-0.82692 2.98112,-0.14655 3.26943,1.54304c0.09924,0.58153 0.03111,1.19225 0.03246,1.78965c0.00121,0.53396 -0.04689,1.07142 -0.00078,1.60101c0.0521,0.59852 0.35842,0.73698 0.93128,0.52129c1.06933,-0.40265 1.26508,-1.43067 1.50886,-2.31724c0.25977,-0.94468 0.27092,-1.96214 0.3502,-2.95107c0.15513,-1.9351 0.42323,-3.87684 0.36314,-5.80707c-0.0315,-1.01147 0.68383,-1.83495 0.39308,-2.8835c-0.10657,-0.3843 0.34901,-0.92439 0.54786,-1.39353c0.4212,-0.99368 0.77101,-2.02616 1.28429,-2.96974c0.46923,-0.86266 0.99251,-0.84855 1.63867,-0.09306c0.59363,0.69406 0.68404,1.55514 0.64733,2.40424c-0.10912,2.52406 -1.04499,4.73697 -2.63311,6.69018c-0.17065,0.20991 -0.36345,0.49089 -0.36162,0.73753c0.01194,1.60006 0.07495,3.19973 0.12885,4.9004c0.02703,0.16469 0.04643,0.22851 0.06584,0.29234c0.03169,-0.08901 0.06339,-0.17803 0.09506,-0.26704c0.33039,-1.26229 0.58342,-2.55194 1.0168,-3.77782c0.31982,-0.90465 0.87495,-1.72611 1.42975,-2.78386c0.73971,0 1.58887,-0.13699 2.37384,0.02924c1.51502,0.32084 2.24869,2.02322 1.39483,3.30766c-0.54227,0.81573 -1.37419,1.43891 -2.17614,2.24943c0.27486,0.37005 0.65004,0.96559 1.11542,1.47947c0.61731,0.68164 1.4166,0.69029 2.03772,0.00869c0.67977,-0.74602 1.14886,-1.605 1.0946,-2.68064c-0.03733,-0.73977 0.25897,-1.33865 0.90383,-1.75841c0.14681,-0.09557 0.24521,-0.29859 0.3158,-0.47248c0.30938,-0.76208 0.60852,-1.52858 0.89562,-2.29934c0.25897,-0.69523 0.24427,-1.38635 -0.01605,-2.09079c-0.18757,-0.50759 0.17636,-1.14317 0.67696,-1.32633c0.43718,-0.15996 0.78661,-0.02249 0.81042,0.4187c0.05621,1.04179 0.6337,1.81291 1.19774,2.60195c0.91454,1.27942 1.88061,2.53101 2.0863,4.24951c1.00976,-0.66486 1.45569,-1.58183 1.7403,-2.59913c0.10921,-0.39035 0.24466,-0.65295 0.65022,-0.90387c2.07502,-1.28379 3.36534,-1.25471 5.29788,0.35734c-0.07817,0.25824 -0.16875,0.42484 -0.25932,0.59144c-0.50686,-0.32816 -0.98534,-0.71633 -1.52642,-0.97206c-1.14658,-0.54192 -2.27318,-0.33899 -3.32988,0.28804c-0.15234,0.09039 -0.26224,0.33733 -0.29609,0.52874c-0.24984,1.41316 -0.75067,2.65933 -2.08861,3.40587c-0.10623,0.05927 -0.17832,0.21555 -0.22414,0.34202c-1.10597,3.05205 -4.23011,3.68737 -6.37468,1.25828c-0.24067,0.45674 -0.46398,0.90812 -0.7117,1.34568c-0.86573,1.52923 -2.85561,2.39471 -4.46754,0.24783c-0.39095,-0.52069 -0.70736,-1.09679 -1.07133,-1.63848c-0.28011,-0.41688 -0.25044,-0.70394 0.21765,-0.99056c0.51254,-0.31385 1.0167,-0.67715 1.42583,-1.11177c0.28,-0.29748 0.49729,-0.73864 0.5553,-1.14247c0.1143,-0.79555 -0.52966,-1.2664 -1.30547,-1.03018c-1.01219,0.30818 -1.57605,1.08392 -1.79521,2.03157c-0.36349,1.57186 -0.60139,3.17298 -0.88219,4.76354c-0.06312,0.35743 -0.08483,0.72216 -0.12606,1.08348c-0.05858,0.51371 -0.30303,0.86885 -0.84416,0.94294c-0.55656,0.0762 -0.86455,-0.25851 -1.04994,-0.71462c-0.19022,-0.46807 -0.33442,-0.95486 -0.50718,-1.45802c-0.24959,0.55867 -0.44414,1.10769 -0.7283,1.60554c-0.51841,0.90815 -1.2726,1.52283 -2.36788,1.56687c-1.25308,0.05039 -1.89237,-0.60062 -1.92597,-1.85467c-0.0198,-0.73909 -0.16061,-1.47655 -0.1562,-2.21419c0.00349,-0.58676 -0.2832,-1.03612 -0.76528,-0.98375c-0.4904,0.05328 -1.09907,0.36175 -1.38033,0.75541c-1.02444,1.43371 -1.6291,3.08047 -2.08932,4.77714c-0.04981,0.18359 -0.11721,0.36251 -0.16437,0.54669c-0.28975,1.13188 -0.87373,1.33577 -1.94481,0.59835c-0.02707,-0.11429 -0.03308,-0.1583 -0.03911,-0.20232c-0.05712,0.06152 -0.11422,0.12303 -0.17133,0.18457m25.68101,-8.98019c0.36737,0.03341 0.73474,0.06682 1.10211,0.10022c0.06351,-0.06799 0.12704,-0.13599 0.19055,-0.20398c-0.71312,-1.45336 -1.42626,-2.90673 -2.22826,-4.54126c-0.29728,0.96261 -0.49608,1.67887 -0.73958,2.3796c-0.49268,1.41778 -0.44163,1.54418 1.00008,2.07501c0.18076,0.06655 0.37061,0.10839 0.67511,0.19041m-1.90029,0.11046c-0.1506,-0.04697 -0.30119,-0.09395 -0.45179,-0.14092c-0.03225,0.15656 -0.11821,0.32455 -0.08776,0.46778c0.16472,0.7744 0.57345,1.38773 1.31835,1.70872c0.96851,0.41735 2.09587,-0.24966 2.1534,-1.08268c-0.97326,-0.30622 -1.90584,-0.59964 -2.9322,-0.9529m-10.10788,-5.30279c0.47156,-1.05171 1.02373,-2.07669 1.38453,-3.16511c0.21756,-0.65622 0.13757,-1.41108 0.19129,-2.12161c-0.08033,-0.01145 -0.16065,-0.02291 -0.24099,-0.03437c-0.76357,1.64767 -1.10295,3.4136 -1.33483,5.32109m-0.04785,0.24167c0,0 -0.0263,-0.01989 -0.0263,-0.01989c0,0 0,0.03647 0.0263,0.01989z" id="svg_4"/>
   <path transform="rotate(13.1723 87.3005 21.8555)" stroke="null" fill="#ffffff" d="m90.46746,16.10913c0.31338,-0.45504 0.54674,-0.90162 0.84583,-1.29873c0.88512,-1.17525 2.2499,-1.6707 3.48339,-1.26393c1.24166,0.40944 1.91545,1.47921 2.03838,3.03648c0.13164,1.66782 -0.37104,3.14068 -1.33389,4.51046c-0.98935,1.40742 -2.3151,2.10535 -3.99597,2.17261c-0.20322,0.00814 -0.41451,-0.18529 -0.62205,-0.28532c0.15661,-0.137 0.30034,-0.29338 0.47209,-0.40762c0.71248,-0.47395 1.5812,-0.80661 2.12116,-1.42725c1.20441,-1.38441 1.91141,-3.0009 1.31954,-4.90953c-0.19651,-0.63368 -0.62769,-1.13482 -1.27602,-1.19924c-0.52564,-0.05224 -1.04713,0.16082 -1.36508,0.72563c-0.32287,0.57351 -0.79547,1.06293 -1.11638,1.63729c-0.17022,0.30469 -0.15503,0.71203 -0.22898,1.0719c-0.03007,0.14631 -0.06963,0.29119 -0.11355,0.43406c-0.13519,0.43968 -0.40043,0.8806 -0.39166,1.31654c0.05269,2.61662 0.17756,5.23172 0.25315,7.84805c0.01308,0.4526 -0.00767,0.94337 -0.17239,1.35221c-0.13355,0.33151 -0.46094,0.71293 -0.7832,0.81366c-0.66322,0.20732 -0.88021,-0.05961 -0.89603,-0.76439c-0.0181,-0.80619 -0.08828,-1.61122 -0.14184,-2.51839c0.03029,-0.04711 0.24284,-0.22509 0.24612,-0.40686c0.02705,-1.49838 0.01527,-2.99745 0.01527,-4.49631c-0.05911,0.01095 -0.11821,0.0219 -0.17732,0.03285c-0.56055,0.7588 -1.06168,1.57369 -1.70453,2.2548c-0.37043,0.39245 -0.94223,0.70873 -1.47206,0.81385c-1.22074,0.24219 -1.60628,-0.04171 -2.27539,-1.34173c-0.43562,0.74409 -0.79335,1.54147 -1.31817,2.2071c-0.75305,0.95512 -1.6165,1.52632 -2.69695,1.06888c-0.65515,-0.27738 -1.4287,-1.32765 -1.43509,-2.12654c-0.01042,-1.30196 0.12496,-2.59539 0.60395,-3.81317c0.59747,-1.51899 1.43856,-2.89127 2.71696,-3.94915c0.90413,-0.74816 2.61356,-1.05917 3.7996,-0.40849c0.85441,0.46872 0.79361,1.77258 -0.16298,2.39796c1.00862,0.19232 0.85535,0.86404 0.71081,1.54578c-0.13887,0.65497 -0.35191,1.31591 -0.34413,1.972c0.00456,0.38418 0.37714,0.76398 0.58416,1.14574c0.29849,-0.20015 0.61206,-0.38129 0.89267,-0.60399c0.8685,-0.6893 1.39743,-1.60509 1.58972,-2.68165c0.11275,-0.63115 0.1891,-1.30276 0.09693,-1.92894c-0.15469,-1.05088 -0.51996,-2.07112 -0.66876,-3.12236c-0.06751,-0.47686 0.17108,-0.99705 0.27902,-1.53876c0.21153,0.06141 0.34264,0.12459 0.47739,0.13364c0.33253,0.02233 0.83624,-0.11304 0.96678,0.05352c0.32368,0.41301 0.4998,0.95092 0.68928,1.45589c0.09129,0.24323 -0.07374,0.65025 0.49022,0.49148m-8.88928,2.22109c-1.34431,1.85457 -1.93465,3.93627 -1.77428,6.20904c0.02831,0.40137 0.36074,0.78128 0.55274,1.17111c0.38376,-0.21499 0.85792,-0.35136 1.12967,-0.66379c0.38849,-0.44667 0.68553,-0.99783 0.92132,-1.5474c0.57099,-1.33091 1.06341,-2.69543 1.62947,-4.02857c0.26414,-0.62209 0.17952,-1.4982 -0.3164,-1.86892c-0.58068,-0.43407 -1.10018,-0.11946 -1.59194,0.20847c-0.17844,0.119 -0.32029,0.2929 -0.55058,0.52004z" id="svg_5"/>
   <path transform="rotate(13.1723 130.989 13.9494)" stroke="null" fill="#ffffff" d="m137.78391,7.76364c0.51037,1.54624 0.85398,3.06985 0.76723,4.65211c-0.09057,1.6525 -0.52015,3.21932 -1.07021,4.78896c-0.4348,1.24068 -1.19197,2.20471 -1.9493,3.20192c-1.51813,1.99901 -3.46882,3.39424 -5.93227,3.94256c-0.67794,0.1509 -1.44688,0.04746 -2.13997,-0.09977c-0.27959,-0.05937 -0.65668,-0.54302 -0.66673,-0.84436c-0.06388,-1.91385 -0.0636,-3.83112 -0.03445,-5.74649c0.03842,-2.52457 0.12842,-5.04832 0.18366,-7.57271c0.01377,-0.62916 -0.14978,-1.2932 0.00399,-1.87935c0.14627,-0.55756 0.51453,-1.13365 0.94999,-1.5118c0.29386,-0.25518 0.87366,-0.18107 1.43204,-0.27151c-0.55738,5.749 -0.83804,11.34827 -0.44037,17.12393c0.57678,-0.1545 1.10446,-0.25921 1.60641,-0.43675c2.00903,-0.71055 3.25242,-2.24022 4.17377,-4.0587c1.03951,-2.05167 1.56979,-4.22939 1.58328,-6.5509c0.00794,-1.3687 -0.01915,-2.70998 -0.48994,-4.00824c-0.61123,-1.68551 -1.53465,-3.12878 -3.44131,-3.45401c-1.73923,-0.29667 -3.47499,-0.29467 -4.87475,1.10955c-0.29285,0.29378 -0.77982,0.39812 -1.06125,0.69851c-1.39451,1.48831 -1.64641,3.15957 -0.63657,4.9983c-0.18711,0.05 -0.3412,0.10201 -0.49948,0.13175c-1.18053,0.22183 -1.72291,-0.22108 -1.81982,-1.40643c-0.08589,-1.05087 0.24653,-1.93384 0.83557,-2.79122c1.80381,-2.62557 4.38834,-3.88076 7.44651,-4.26326c2.48961,-0.31138 4.83664,1.21282 5.82711,3.66946c0.07127,0.17677 0.14499,0.35257 0.24686,0.57846z" id="svg_6"/>
   <path transform="rotate(13.1723 109.284 14.401)" stroke="null" fill="#ffffff" d="m112.21123,13.83537c0.0118,-0.97465 -0.03203,-1.95418 0.0531,-2.92238c0.06753,-0.76829 0.29269,-1.52276 0.44969,-2.28299c0.00434,-0.02097 0.04168,-0.03644 0.04356,-0.05639c0.08394,-0.88382 0.14819,-1.77002 0.25795,-2.65057c0.03385,-0.27172 0.18617,-0.53004 0.29279,-0.791c0.19907,-0.48707 0.38452,-0.98119 0.61308,-1.45428c0.20259,-0.41939 0.60997,-0.64586 1.0101,-0.43674c0.24904,0.13015 0.50701,0.56116 0.48585,0.83599c-0.09812,1.2754 -0.27687,2.54559 -0.45595,3.81352c-0.26544,1.87968 -0.6113,3.74981 -0.81629,5.6356c-0.14601,1.3433 -0.16957,2.70664 -0.14433,4.05911c0.01368,0.73213 0.19827,1.47243 0.38837,2.18707c0.24372,0.91618 0.70988,1.08639 1.33572,0.37989c0.60739,-0.68568 1.04965,-1.53638 1.46881,-2.36309c0.25623,-0.50536 0.33216,-1.10214 0.48905,-1.65785c0.07766,-0.02236 0.15529,-0.04471 0.23293,-0.06707c0.09896,0.22168 0.30836,0.45911 0.27932,0.66252c-0.22473,1.57426 -0.76012,3.03619 -1.83893,4.23402c-0.70401,0.78167 -1.57823,1.43598 -2.67902,1.09628c-1.10704,-0.34161 -1.2786,-1.41735 -1.44615,-2.51767c-0.02009,-0.18028 -0.03383,-0.26022 -0.06143,-0.42093c-0.07613,0.1693 -0.11942,0.26563 -0.16273,0.36197c-0.69929,1.20721 -1.28022,2.50671 -2.12997,3.5966c-0.91611,1.17501 -2.508,1.37715 -3.60359,0.13372c-0.30121,-0.34185 -0.42901,0.00183 -0.58616,0.16945c-0.52274,0.55753 -0.95525,1.24892 -1.57543,1.65543c-1.22774,0.80475 -2.12068,0.85697 -3.30867,-0.15429c-0.1239,-0.10546 -0.17832,-0.31787 -0.2193,-0.49145c-0.34132,-1.44548 -0.16022,-2.9096 -0.20523,-4.36627c-0.03447,-1.11491 0.53783,-1.90091 0.82886,-2.83519c0.05381,-0.17278 0.19169,-0.38865 0.34383,-0.44755c0.35064,-0.13575 0.79295,-0.33814 1.08474,-0.22395c0.22298,0.08728 0.41869,0.64119 0.37102,0.94782c-0.13535,0.87095 -0.45633,1.71247 -0.60093,2.58275c-0.14446,0.86923 -0.25544,1.76481 -0.20216,2.63792c0.02949,0.48331 0.32272,1.20233 0.68381,1.34614c0.39874,0.15879 1.19221,-0.05633 1.49578,-0.39424c0.83503,-0.92951 1.66803,-1.93374 1.31981,-3.38243c-0.05682,-0.23641 0.18385,-0.54707 0.29429,-0.82048c0.47376,-1.17297 0.87066,-2.38565 1.44573,-3.50685c0.73164,-1.42645 1.98745,-2.76113 3.86724,-2.68907c0.37846,0.0145 0.58925,0.11331 0.66324,0.60112c-0.1385,0.21484 -0.27838,0.33546 -0.43994,0.4074c-0.58153,0.25891 -1.32209,0.35897 -1.72078,0.78361c-0.59345,0.63209 -1.04908,1.44759 -1.38028,2.25972c-0.54409,1.33419 -0.80967,2.74926 -0.43122,4.19013c0.22151,0.84339 0.82267,1.05866 1.45909,0.47975c0.47133,-0.42874 0.8774,-0.97651 1.17148,-1.54432c1.06503,-2.05654 1.45154,-4.29092 1.57926,-6.58047z" id="svg_7"/>
   <path transform="rotate(13.1723 70.8758 17.5645)" stroke="null" fill="#ffffff" d="m74.03448,24.5708c-1.3527,-1.16294 -2.69659,-2.25884 -3.99944,-3.40155c-0.59669,-0.52336 -1.11262,-1.1388 -1.75793,-1.80878c0,2.95058 0,5.76422 0,8.66288c-0.57389,0 -1.06241,0.07022 -1.52109,-0.01685c-0.65005,-0.12339 -0.8299,-0.67149 -0.84254,-1.25921c-0.02083,-0.96767 -0.05298,-1.93768 -0.00974,-2.90355c0.07753,-1.73162 0.20711,-3.46093 0.31578,-5.19115c0.04488,-0.7144 0.11722,-1.42828 0.12863,-2.14316c0.00702,-0.43948 -0.07759,-0.88043 -0.12643,-1.37507c0.6849,-1.8739 0.46418,-3.97062 0.9692,-6.1816c-0.39912,0.20045 -0.61323,0.26858 -0.77896,0.39845c-0.54148,0.4243 -1.06501,0.87149 -1.59606,1.30914c-0.70061,0.57739 -1.01448,0.54961 -1.78215,-0.23374c0.76337,-0.54623 1.47349,-1.15175 2.26979,-1.60629c2.61726,-1.49398 5.34564,-2.35924 8.35943,-1.21516c1.71148,0.64972 2.30791,1.9989 2.53995,3.70242c0.15483,1.13665 -0.4855,1.8456 -1.06279,2.58497c-1.21375,1.55453 -2.89732,2.47422 -4.68395,3.22233c-0.53739,0.22502 -1.07192,0.45686 -1.73509,0.73991c0.55558,0.50206 1.0957,0.99025 1.6359,1.47833c1.865,1.68506 3.85488,3.18827 6.13608,4.27987c0.5959,0.28515 1.26851,0.30025 1.83586,0.77183c0.46604,0.38739 0.49467,0.62635 0.18516,1.02842c-0.58535,0.76039 -1.36162,0.94795 -2.29333,0.47716c-0.74438,-0.37612 -1.4422,-0.84434 -2.18628,-1.31959m-0.15564,-14.42807c-0.42754,-1.33211 -1.34714,-2.0409 -2.73677,-2.1114c-0.50557,-0.02566 -1.01507,0.03872 -1.52294,0.04289c-0.65518,0.00537 -0.91899,0.33128 -0.95445,0.97617c-0.13988,2.54418 -0.3111,5.08664 -0.46653,7.62998c-0.00803,0.13131 0.02262,0.26497 0.0404,0.45165c1.88259,-0.70582 3.5201,-1.66002 4.80408,-3.14547c0.9367,-1.08368 1.26709,-2.32538 0.83621,-3.84383z" id="svg_8"/>
   <path transform="rotate(13.1723 117.398 48.0895)" stroke="null" fill="#ffffff" d="m114.68686,50.14277c0.10721,-1.40318 0.56062,-2.72545 0.13497,-4.08158c-0.0332,-0.1058 0.10155,-0.25544 0.1281,-0.39063c0.06904,-0.35173 0.12134,-0.70675 0.08506,-1.08201c-1.34709,0.48104 -1.16124,1.68138 -1.43476,2.65312c-0.9276,-0.0072 -1.39706,-0.66255 -1.17761,-1.52797c0.57464,-2.26602 2.57074,-3.24669 4.52436,-3.48632c0.16764,-0.02056 0.34929,0.01371 0.50482,-0.0373c1.44688,-0.47446 2.47164,0.363 3.499,1.138c1.4472,1.09176 1.47881,2.71005 1.47509,4.29991c-0.00169,0.72527 -0.06132,1.48901 -0.29747,2.16439c-0.24049,0.68781 -0.68812,1.31865 -1.11973,1.92089c-0.82364,1.14928 -2.10057,1.7132 -3.29206,2.36276c-0.23783,0.12966 -0.62646,-0.02712 -0.94598,-0.03565c-1.00671,-0.02692 -1.81452,-0.45058 -2.32014,-1.03983c0.08638,-1.03593 0.15948,-1.9126 0.23637,-2.85778m6.1184,-5.31903c-0.82542,-2.1144 -3.53628,-2.83679 -4.94579,-1.36183c0.4744,0.12665 0.97132,0.25932 1.43962,0.38434c-0.58728,3.0503 -1.19523,5.97856 -1.13548,8.99542c1.30002,0.01358 2.57332,-0.60222 3.44622,-1.67355c1.50991,-1.85313 1.83803,-3.95279 1.19543,-6.34437z" id="svg_9"/>
   <path transform="rotate(13.1723 144.873 31.3343)" stroke="null" fill="#ffffff" d="m159.38377,31.82145c-1.08222,0.04017 -2.16445,0.08034 -3.34057,0.16267c-0.21338,0.0789 -0.33283,0.11565 -0.4523,0.15239c-4.00406,-0.02048 -8.00813,-0.03848 -12.01217,-0.06221c-3.33146,-0.01974 -6.66299,-0.07171 -9.99424,-0.0559c-1.17331,0.00556 -2.34587,0.16975 -3.59756,0.20359c-0.54128,-0.49877 -0.1707,-0.91966 -0.04794,-1.34649c1.98473,-0.08472 3.96895,-0.22738 5.95425,-0.24382c7.40012,-0.0613 14.80059,-0.07831 22.20087,-0.12178c0.62968,-0.0037 1.25892,-0.0803 1.95068,-0.05989c-0.17878,0.49924 -0.4199,0.93534 -0.66102,1.37144z" id="svg_10"/>
   <path transform="rotate(13.1723 155.332 49.8946)" stroke="null" fill="#ffffff" d="m156.76794,54.20994c-0.50012,0.61303 -0.92904,1.22329 -1.4522,1.73769c-0.63981,0.6291 -2.77056,0.39154 -3.11739,-0.25061c0.48951,-0.08131 1.02776,-0.0778 1.48817,-0.26538c1.17557,-0.47901 1.73256,-1.53456 2.10639,-2.65084c0.28592,-0.85369 0.41323,-1.76217 0.58281,-2.65166c0.03109,-0.16314 -0.07333,-0.35214 -0.14271,-0.64559c-0.26162,0.36641 -0.46113,0.59264 -0.60039,0.8513c-0.35184,0.65353 -0.86877,0.86047 -1.57433,0.66692c-0.66671,-0.18289 -0.98467,-0.64772 -0.98362,-1.30093c0.00155,-0.97952 0.19117,-1.97847 0.05114,-2.9325c-0.11956,-0.81456 0.3639,-1.35835 0.54726,-2.02025c0.24002,-0.86655 0.84151,-1.00795 1.79402,-0.68258c-0.04765,0.33602 -0.07433,0.65619 -0.14271,0.96718c-0.06166,0.28044 -0.1859,0.54681 -0.25279,0.8265c-0.15519,0.64864 -0.34342,1.29551 -0.42182,1.95457c-0.07125,0.59889 -0.02456,1.21319 -0.00749,1.82007c0.00354,0.12598 0.07639,0.31076 0.17079,0.35541c0.08486,0.04014 0.30333,-0.03722 0.35979,-0.12734c0.6152,-0.98185 1.02043,-2.04021 1.14126,-3.20375c0.03539,-0.34071 0.15515,-0.67222 0.22937,-1.00946c0.12437,-0.56501 0.20549,-1.12963 0.41497,-1.68743c0.13558,-0.36107 0.26306,-0.43772 0.56648,-0.46426c0.93144,-0.08147 1.01168,0.00238 0.90185,0.92361c-0.10283,0.86243 -0.37362,1.75175 -0.25414,2.58381c0.23501,1.63688 -0.28283,3.18255 -0.38394,4.77197c-0.05178,0.81382 -0.6436,1.59328 -1.02075,2.43354z" id="svg_11"/>
   <path transform="rotate(13.1723 89.0402 49.325)" stroke="null" fill="#ffffff" d="m91.67753,44.09887c-0.82523,0.33427 -1.59278,0.65913 -2.51883,1.05106c-0.15465,0.97618 -0.33762,2.131 -0.54985,3.47065c0.8188,-0.6952 1.66777,-0.95591 2.56433,-0.60799c0.24103,0.09355 0.35504,0.51434 0.58281,0.87199c-0.42076,0.12736 -0.71527,0.19569 -0.9938,0.30484c-0.72586,0.28449 -1.44993,0.57523 -2.16118,0.89367c-0.11728,0.0525 -0.26192,0.28581 -0.23199,0.38823c0.33634,1.15072 -0.49071,2.20794 -0.2361,3.36095c0.1328,0.6014 0.10027,1.23928 0.14222,1.85793c-1.08282,0.16233 -1.73678,-0.19294 -1.91421,-1.05341c-0.03575,-0.17336 0.04817,-0.3751 0.09317,-0.55979c0.02101,-0.08618 0.13858,-0.20361 0.11444,-0.23792c-0.45193,-0.64218 0.03607,-1.23697 0.15309,-1.81001c0.16366,-0.80135 -0.08379,-1.31879 -0.66527,-1.77912c-0.04968,-0.03934 -0.06846,-0.11774 -0.12161,-0.21441c0.12298,-0.08408 0.22642,-0.17693 0.34687,-0.23352c0.69312,-0.32565 0.96073,-0.79835 0.58527,-1.53718c-0.05732,-0.11278 -0.03005,-0.28503 -0.00228,-0.42172c0.11896,-0.58517 0.25276,-1.16731 0.38191,-1.75412c-1.58013,-0.24327 -1.66835,-0.3098 -1.69918,-1.20756c0.76346,-0.23171 1.54436,-0.44088 2.30551,-0.70656c1.01693,-0.35499 2.01393,-0.76667 3.02815,-1.12982c0.82542,-0.29554 1.25931,-0.07799 1.65197,0.83659c-0.27244,0.07097 -0.53512,0.13938 -0.85544,0.21722z" id="svg_13"/>
   <path transform="rotate(13.1723 107.613 32.6969)" stroke="null" fill="#ffffff" d="m111.54692,27.6963c-1.11756,0.72779 -2.29081,1.38473 -3.33495,2.20587c-0.83202,0.65433 -1.52714,1.49032 -2.24337,2.28156c-0.44547,0.49212 -0.91742,1.00241 -1.20235,1.58952c-0.76225,1.57054 -0.39883,3.04453 0.93434,4.27886c-0.12915,0.58686 -0.27459,1.0731 -0.42003,1.55934c-1.63472,-1.06555 -2.27424,-2.71836 -2.27958,-4.52277c-0.00427,-1.44494 0.68769,-2.8102 1.59698,-3.93171c0.86781,-1.07036 1.84104,-2.11176 2.94964,-2.91511c1.19943,-0.86916 2.60896,-1.44852 3.92742,-2.15319c0.23377,-0.12494 0.4704,-0.24454 0.75086,-0.30636c-0.19624,0.67815 -0.43761,1.29607 -0.67897,1.91399z" id="svg_15"/>
   <path transform="rotate(13.1723 121.121 28.1522)" stroke="null" fill="#ffffff" d="m112.72007,30.71839c0.18676,-0.61345 0.42812,-1.23137 0.67269,-1.89821c2.72146,-1.22659 5.57647,-1.93881 8.47917,-2.44908c1.95282,-0.34329 3.92803,-0.55928 6.00507,-0.78511c0.616,0.30028 1.12014,0.55345 1.64417,0.81661c-0.09922,0.20871 -0.16836,0.35416 -0.23749,0.49959c-2.18671,0.29808 -4.37731,0.5709 -6.55872,0.90371c-1.30552,0.19917 -2.60247,0.46683 -3.89096,0.75818c-0.39743,0.08985 -0.75387,0.36009 -1.12994,0.54604c-0.10221,0.05053 -0.20973,0.14032 -0.311,0.1353c-1.72411,-0.08553 -3.0886,0.95104 -4.673,1.47296z" id="svg_16"/>
   <path transform="rotate(13.1723 167.997 34.7351)" stroke="null" fill="#ffffff" d="m159.13064,37.1904c0.17782,-0.44617 0.41894,-0.88227 0.66287,-1.37158c5.6876,-0.45709 11.1428,-1.96117 16.58833,-3.51234c0.11494,-0.03275 0.23693,-0.04076 0.41358,0.00657c0.06385,0.20754 0.06976,0.34821 0.06609,0.50435c-0.00959,0.01547 -0.02859,0.04652 -0.06972,0.06602c-0.15334,0.27431 -0.26555,0.52912 -0.37775,0.78393c-1.28767,0.3757 -2.57031,0.77001 -3.86459,1.12135c-1.09341,0.29681 -2.19659,0.56057 -3.30235,0.808c-1.06529,0.23839 -2.13442,0.4677 -3.21096,0.64582c-1.45776,0.2412 -2.92363,0.4339 -4.38716,0.63931c-0.81717,0.1147 -1.63661,0.21297 -2.51835,0.30858z" id="svg_18"/>
   <path transform="rotate(13.1723 95.5067 50.9957)" stroke="null" fill="#ffffff" d="m94.92725,54.39509c-0.80348,0.51232 -1.77735,0.04018 -2.00181,-0.96952c-0.12286,-0.55271 -0.06433,-1.14452 -0.17441,-1.70154c-0.26553,-1.34364 0.49341,-2.36997 1.07384,-3.41523c0.66685,-1.20091 1.40208,-1.20491 2.37391,-0.14434c-1.19943,0.85629 -1.72546,2.11229 -1.943,3.49696c-0.09976,0.63497 0.00849,1.30263 0.02454,2.056c1.05528,-0.59501 1.25525,-1.14871 2.32067,-6.0219c0.29153,0 0.6176,-0.06274 0.89811,0.02318c0.17246,0.05281 0.42636,0.43907 0.38693,0.49518c-0.6838,0.97314 -0.27605,2.05783 -0.33885,3.08557c-0.04317,0.70583 0.07908,1.39622 0.76976,1.80983c-0.95257,1.08695 -1.47646,0.91626 -2.10278,-0.88081c-0.47264,0.80767 -0.85909,1.46804 -1.28693,2.16662z" id="svg_19"/>
   <path transform="rotate(13.1723 131.439 46.4957)" stroke="null" fill="#ffffff" d="m131.5552,51.53256c0.09346,0.53282 0.17492,1.00198 0.25626,1.47043c-0.63767,0.05306 -1.37649,-0.38218 -1.50349,-0.95485c-0.13752,-0.61997 -0.18295,-1.26002 -0.31228,-1.88223c-0.19633,-0.94437 0.06024,-1.87706 0.02532,-2.8146c-0.01411,-0.37873 -0.09105,-0.75476 -0.12787,-1.13315c-0.01831,-0.18813 -0.05006,-0.3883 -0.00714,-0.56651c0.12317,-0.51143 0.41761,-1.01922 0.40004,-1.51983c-0.051,-1.45261 0.57398,-2.72784 0.89407,-4.12493c0.63566,0.08608 1.34284,-0.29914 1.83349,0.46381c-0.91376,1.95955 -1.49156,4.07581 -1.46162,6.22631c0.02212,1.59114 -0.4402,3.18619 0.0032,4.83554z" id="svg_22"/>
   <path transform="rotate(13.1723 101.052 50.7276)" stroke="null" fill="#ffffff" d="m102.42674,52.86622c-0.09791,1.5102 -1.08829,2.54517 -2.2807,2.44758c-0.65184,-0.05336 -1.15793,-0.60049 -1.22473,-1.24803c-0.14184,-1.37536 0.71485,-2.14713 1.72921,-2.74975c0.35655,-0.21184 0.39403,-0.24165 0.20329,-0.59181c-0.36863,-0.67674 -0.69515,-1.38185 -0.97422,-2.10041c-0.2727,-0.70215 0.51295,-2.33186 1.13761,-2.46805c0.87753,-0.19129 2.25958,0.97969 2.17714,1.86799c-0.02947,0.31769 -0.14775,0.62712 -0.22548,0.94032c-0.09613,-0.01222 -0.19225,-0.02446 -0.28836,-0.03668c-0.01619,-0.21589 0.00101,-0.44151 -0.05828,-0.64483c-0.05595,-0.19188 -0.20104,-0.51306 -0.29178,-0.50797c-0.20384,0.01147 -0.46805,0.14122 -0.58503,0.30858c-0.67575,0.96668 -0.065,2.35871 1.08731,2.53035c0.00703,0.04716 0.02981,0.13116 0.0179,0.1364c-1.10485,0.48698 -0.48416,1.32826 -0.42387,2.11629m-1.88429,1.73586c0.78352,-0.72377 1.01115,-1.60648 0.83194,-2.73319c-0.75633,0.55349 -1.13654,1.21086 -1.26132,1.98368c-0.0379,0.23475 0.20339,0.51456 0.42939,0.7495z" id="svg_23"/>
   <path transform="rotate(13.1723 106.566 49.1337)" stroke="null" fill="#ffffff" d="m106.8622,52.43363c0.15949,0.16182 0.33881,0.37463 0.45686,0.34481c0.55619,-0.14044 1.09558,-0.3474 1.62535,-0.52537c-0.66748,1.52661 -1.69925,1.96153 -3.00477,1.24694c-0.63668,-0.3485 -1.0075,-1.2469 -0.82845,-1.94197c0.0594,-0.23064 0.06105,-0.47994 0.06303,-0.72092c0.00699,-0.85407 0.00274,-1.70824 0.00274,-2.58804c-0.4951,0.22355 -0.94125,0.23892 -0.98869,-0.55848c0.22729,-0.10995 0.46384,-0.24059 0.71244,-0.34149c0.64084,-0.26005 0.69746,-0.8676 0.82927,-1.41154c0.3634,-1.49949 0.59319,-1.66548 2.15616,-1.40221c-0.10154,0.31718 -0.21032,0.62337 -0.29653,0.93575c-0.08557,0.31012 -0.14844,0.6265 -0.22494,0.95591c0.44216,0.08669 0.77224,0.15141 1.13845,0.22322c-0.2127,0.57577 -0.43987,0.93432 -1.06234,0.87613c-0.16989,-0.01587 -0.5206,0.23775 -0.52535,0.37669c-0.05095,1.48889 -0.04906,2.97958 -0.05322,4.53059z" id="svg_24"/>
   <path transform="rotate(13.1723 125.836 49.0653)" stroke="null" fill="#ffffff" d="m126.94901,49.26389c-0.6587,0.52611 -1.26374,1.03796 -1.89191,1.56937c0.03824,0.49393 0.24569,0.8174 0.79475,1.00348c0.56217,0.19054 0.81047,-0.14054 1.08481,-0.45263c0.3126,-0.35565 0.57379,-0.75622 0.86181,-1.13386c0.11367,-0.14903 0.23943,-0.28884 0.45031,-0.54142c-0.01772,1.50811 -1.49247,3.09195 -2.6908,3.07196c-1.23627,-0.02062 -2.10924,-1.02927 -2.13354,-2.28665c-0.0244,-1.26217 0.32666,-2.41182 0.78086,-3.55325c0.42036,-1.05639 1.42021,-1.66666 2.51241,-1.5838c0.487,0.03696 0.69737,0.26282 0.80658,0.72241c0.27034,1.13797 -0.10248,2.15427 -0.57528,3.18439m-1.7987,0.84727c0.95715,-0.96567 1.72571,-2.00769 1.50254,-3.64281c-1.27805,1.00576 -1.60591,2.23501 -1.50254,3.64281z" id="svg_25"/>
   <path transform="rotate(13.1723 144.481 48.1554)" stroke="null" fill="#ffffff" d="m142.05523,48.43867c0.24551,-1.43946 0.71848,-2.68101 1.8106,-3.63971c0.57498,-0.50474 1.91705,-0.57115 2.42199,-0.01418c0.03787,0.04177 0.01806,0.14561 0.00907,0.21863c-0.10465,0.85008 -0.03534,1.77937 -0.37113,2.52627c-0.31018,0.68992 -1.07766,1.1652 -1.59917,1.77325c-0.23113,0.2695 -0.77901,0.33667 -0.56936,0.93874c0.34125,0.97997 0.89228,1.19513 1.61335,0.45383c0.54384,-0.55914 0.94297,-1.25906 1.53659,-1.90822c-0.04901,0.25971 -0.03354,0.5574 -0.15976,0.77166c-0.31603,0.53663 -0.65075,1.0757 -1.06125,1.54021c-0.6486,0.7339 -1.57294,0.99241 -2.17328,0.70173c-0.80149,-0.38807 -1.47968,-1.512 -1.44126,-2.36187c0.014,-0.30996 -0.00986,-0.62165 -0.01641,-1.00034m1.95243,-1.33187c-0.14339,0.65543 -0.28678,1.31086 -0.43017,1.96628c1.4372,-1.04923 2.04188,-2.5341 1.51288,-3.61452c-0.37894,0.56856 -0.70515,1.05802 -1.08272,1.64824z" id="svg_26"/>
   <path transform="rotate(13.1723 183.102 32.443)" stroke="null" fill="#ffffff" d="m176.45631,35.84492c1.40797,-0.49931 2.83529,-0.95051 4.22005,-1.50754c3.30438,-1.32921 6.17942,-3.23293 8.21155,-6.35371c0.34744,0.13668 0.60463,0.30404 0.86183,0.4714c-1.14884,2.27844 -2.96265,3.92468 -5.10267,5.21673c-1.11174,0.67121 -2.30471,1.21465 -3.48572,1.76243c-1.17854,0.54664 -2.38802,1.0266 -3.63527,1.468c-0.14289,-0.15826 -0.23448,-0.24872 -0.33692,-0.34808c-0.01085,-0.0089 -0.03377,-0.02509 -0.05381,-0.05229c-0.08283,-0.04605 -0.14565,-0.0649 -0.22446,-0.09272c-0.016,-0.00898 -0.04874,-0.02552 -0.07225,-0.05882c-0.14241,-0.10673 -0.26128,-0.18017 -0.38145,-0.28629c-0.00126,-0.03268 -0.00352,-0.09805 -0.0026,-0.12831c0.00091,-0.03026 0.00171,-0.0908 0.00171,-0.0908z" id="svg_27"/>
   <path transform="rotate(13.1723 138.58 48.3815)" stroke="null" fill="#ffffff" d="m137.59935,46.92277c0.27352,1.1939 0.53747,2.3267 0.81371,3.51218c0.84804,-0.74302 1.12126,-1.7404 1.78957,-6.32314c0.35746,0.06739 0.71077,0.134 1.19977,0.22619c-0.40582,1.64705 -0.70808,3.21569 -1.19738,4.72363c-0.26777,0.8253 -0.84245,1.55354 -1.29768,2.31422c-0.17483,0.29216 -0.38387,0.56943 -0.61189,0.82234c-0.16743,0.18572 -0.4901,0.49496 -0.5726,0.4481c-0.35125,-0.19951 -0.92157,-0.53089 -0.90425,-0.77861c0.1215,-1.73669 -0.52275,-3.29789 -0.99824,-4.89281c-0.1554,-0.52125 -0.02221,-0.8498 0.37758,-1.06522c0.44157,-0.23794 0.98326,-0.42355 1.35695,0.067c0.14647,0.19228 0.03103,0.58409 0.04445,0.94612z" id="svg_28"/>
   <path transform="rotate(13.1723 107.355 37.2383)" stroke="null" fill="#ffffff" d="m104.22597,39.67928c0.1968,-0.54696 0.27327,-1.04828 0.42211,-1.57028c0.88103,0.12175 1.66914,0.266 2.5569,0.18453c0.93207,-0.08554 0.98437,-0.39374 0.35066,-1.01523c-0.54073,-0.53032 -0.77302,-1.39672 -0.48658,-1.81491c0.53384,-0.77938 1.35593,-1.10661 2.17972,-0.86763c0.9515,0.27602 1.59018,2.24947 1.01759,3.23797c-1.10348,1.90499 -3.99115,2.55227 -6.04039,1.84554l0,0z" id="svg_29"/>
   <path transform="rotate(13.1723 150.351 48.0353)" stroke="null" fill="#ffffff" d="m152.54337,46.75896c-0.30939,0.49851 -0.82528,0.56525 -1.23603,0.18196c-0.15359,-0.1433 -0.25952,-0.33764 -0.4648,-0.61269c-1.02058,1.89199 -1.84527,3.63143 -1.28579,5.69027c-0.87936,0.01408 -1.48728,-0.48835 -1.4924,-1.21569c-0.0111,-1.57474 -0.02598,-3.15058 0.02408,-4.72396c0.01676,-0.52694 0.22597,-1.04777 0.35064,-1.58615c0.30246,0 0.54382,-0.01294 0.78334,0.00258c0.5706,0.03698 0.92242,0.18841 0.61995,0.89204c-0.16328,0.37987 -0.1525,0.83456 -0.22024,1.2555c0.08517,0.04112 0.17033,0.08224 0.25551,0.12336c0.31952,-0.58623 0.64518,-1.16923 0.9545,-1.76079c0.08456,-0.16169 0.16182,-0.34707 0.17028,-0.52499c0.02675,-0.56476 0.46917,-0.41541 0.75097,-0.39776c0.12784,0.00801 0.31173,0.311 0.33938,0.49938c0.07481,0.50997 0.01794,1.03143 0.51151,1.41553c0.10892,0.08476 -0.01415,0.46762 -0.06089,0.76141z" id="svg_30"/>
   <path transform="rotate(13.1723 191.57 23.3072)" stroke="null" fill="#ffffff" d="m191.88566,30.52566c-0.29673,-0.1322 -0.55391,-0.29956 -0.86418,-0.46996c1.15528,-2.19074 1.91034,-4.48484 1.54467,-7.02706c-0.34258,-2.38143 -1.21158,-4.52817 -2.90517,-6.34798c0.07016,-0.21083 0.16074,-0.37743 0.25962,-0.59192c3.22672,3.24028 4.24924,7.12941 3.1064,11.5658c-0.25123,0.97522 -0.7286,1.89218 -1.14133,2.87111z" id="svg_34"/>
   <path transform="rotate(13.1723 133.544 48.924)" stroke="null" fill="#ffffff" d="m132.57963,47.33085c0.07369,-0.21591 0.13551,-0.3685 0.18103,-0.5258c0.26546,-0.91703 0.58639,-1.07475 1.47553,-0.72428c0.37842,0.14916 0.51293,0.31061 0.40545,0.80465c-0.24217,1.11312 -0.37209,2.25666 -0.46061,3.3946c-0.04166,0.53549 0.11752,1.08662 0.18602,1.63352c-0.9813,0.15071 -1.54659,-0.36793 -1.65311,-1.37585c-0.00473,-0.04477 0.04698,-0.11375 0.02881,-0.13624c-0.77643,-0.96114 0.09033,-2.02039 -0.16312,-3.07061z" id="svg_35"/>
   <path transform="rotate(13.1723 103.156 11.4844)" stroke="null" fill="#ffffff" d="m103.90154,12.44697c-1.14856,0.66698 -1.66432,0.32447 -2.34089,-0.71147c0.24306,-0.27158 0.44495,-0.59368 0.7317,-0.79491c0.428,-0.30037 0.89101,-0.64212 1.38369,-0.73853c0.8198,-0.1604 1.30871,0.53555 0.96169,1.30536c-0.1523,0.33788 -0.45585,0.60759 -0.7362,0.93955z" id="svg_38"/>
   <path transform="rotate(13.1723 152.991 8.85961)" stroke="null" fill="#ffffff" d="m152.10766,10.15061c-0.88345,-0.83551 -0.47126,-2.16009 0.77441,-2.50243c0.37775,-0.10381 0.99903,-0.1576 1.18557,0.05257c0.39275,0.44249 0.35265,1.06448 -0.01609,1.60086c-0.4633,0.67398 -1.12185,0.92042 -1.94389,0.84901z" id="svg_39"/>
   <path transform="rotate(13.1723 135.5 43.5998)" stroke="null" fill="#ffffff" d="m135.71285,44.76046c-0.23403,0.07977 -0.48894,0.2545 -0.57617,0.19267c-0.38769,-0.27484 -0.7401,-2.10548 -0.5038,-2.53426c0.05929,-0.10753 0.26626,-0.18449 0.406,-0.18547c0.23519,-0.00165 0.46949,0.08485 0.70668,0.10582c0.71059,0.06279 0.86384,0.36258 0.52576,1.00703c-0.22815,0.43488 -0.3389,0.93135 -0.55847,1.41421z" id="svg_40"/>
   <path transform="rotate(13.1723 129.23 27.9805)" stroke="null" fill="#ffffff" d="m129.38802,28.74966c0.00906,-0.14942 0.07819,-0.29487 0.17741,-0.50358c-0.52403,-0.26316 -1.02817,-0.51633 -1.58549,-0.79344c0.75932,-0.1002 1.5718,-0.17648 2.45018,-0.2414c-0.05685,0.4382 -0.42743,0.8591 0.05022,1.34689c-0.33399,0.09648 -0.68312,0.14599 -1.09233,0.19152z" id="svg_41"/>
   <path transform="rotate(13.1723 176.399 35.0639)" stroke="null" fill="#ffffff" d="m178.32814,34.94466c-0.69174,-0.06314 -3.42707,0.1462 -3.76325,0.8849c-0.75735,-0.85901 2.01248,-0.34003 1.58076,-1.1153c0,0 0.02627,-0.06621 0.09344,-0.13135c0.41132,-0.1383 0.75541,-0.21144 1.09952,-0.28458c0,0 0.04526,0.03527 0.09411,0.11247c0.13632,0.11737 0.22376,0.15751 0.31123,0.19766c0,0 0.03168,0.03453 0.03965,0.15359c0.00517,0.32188 0.75167,-0.2927 0.54453,0.18261z" id="svg_42"/>
   <path transform="rotate(13.1723 175.817 34.5715)" stroke="null" fill="#ffffff" d="m176.22613,34.75394c-0.22544,0.06761 -0.47437,0.10191 -0.76234,0.15129c-0.04493,-0.12559 -0.05084,-0.26626 -0.05625,-0.46033c0.11326,-0.10821 0.22605,-0.16302 0.38753,-0.20708c0.04872,0.01074 0.04792,0.07128 0.03114,0.11594c-0.03849,0.08882 -0.02632,0.1228 0.01975,0.14658c0.11889,0.07344 0.23775,0.14688 0.38016,0.2536z" id="svg_45"/>
   <path transform="rotate(13.1723 176.723 35.2687)" stroke="null" fill="#ffffff" d="m176.62199,35.50333c-0.04751,-0.13518 -0.04548,-0.2692 -0.03837,-0.46934c0.09668,0.06134 0.18827,0.1888 0.28162,0.37823c-0.0634,0.07208 -0.12857,0.08219 -0.24325,0.09111z" id="svg_50"/>
   <path transform="rotate(13.1723 155.351 34.5603)" stroke="null" fill="#ffffff" d="m155.17134,34.61645c0.07958,-0.04393 0.19903,-0.08068 0.36023,-0.11226c-0.07897,0.04327 -0.19966,0.08137 -0.36023,0.11226z" id="svg_53"/>
   <path transform="rotate(13.1723 153.421 19.7202)" stroke="null" fill="#ffffff" d="m153.34436,19.81079c0.03226,-0.06414 0.08937,-0.12566 0.14649,-0.18717c0.00603,0.04401 0.01205,0.08803 -0.00189,0.16112c-0.01997,0.02908 -0.06986,0.0321 -0.06986,0.0321c0,0 -0.04988,-0.00343 -0.07474,-0.00605z" id="svg_61"/>
   <path transform="rotate(13.1723 110.942 19.8341)" stroke="null" fill="#ffffff" d="m110.86225,20.01431c-0.00671,-0.10944 0.03658,-0.20577 0.11271,-0.37507c0.0276,0.16071 0.04134,0.24065 0.04723,0.36285c-0.04187,0.0366 -0.07589,0.03095 -0.15994,0.01222z" id="svg_62"/>
   <path transform="rotate(13.1723 167.871 16.5911)" stroke="null" fill="#ffffff" d="m167.92653,16.45704c0.00278,0.09052 -0.02892,0.17953 -0.06061,0.26854c-0.01941,-0.06382 -0.03881,-0.12765 -0.0505,-0.23061c0.00769,-0.03913 0.07666,-0.03944 0.11111,-0.03794z" id="svg_63"/>
   <path transform="rotate(13.1723 169.727 9.31416)" stroke="null" fill="#ffffff" d="m169.7317,9.32764c-0.01315,0.00829 -0.01315,-0.02818 -0.01315,-0.02818c0,0 0.0263,0.01989 0.01315,0.02818z" id="svg_69"/>
   <path transform="rotate(13.1723 176.159 34.8956)" stroke="null" fill="#ffffff" d="m176.25363,34.92388c-0.04324,0.00837 -0.1065,-0.01045 -0.18912,-0.05652c0.04347,-0.00838 0.10629,0.01046 0.18912,0.05652z" id="svg_76"/>
   <path transform="rotate(13.1723 175.498 34.7668)" stroke="null" fill="#ffffff" d="m175.51933,34.80897c-0.04479,0.0089 -0.05696,-0.02508 -0.0194,-0.08365c0.01587,-0.0144 0.01813,0.05097 0.0194,0.08365z" id="svg_77"/>
  </g>
 </g>

</svg>