<svg width="500" height="500" xmlns="http://www.w3.org/2000/svg" version="1.1" enable-background="new 0 0 500 500" xml:space="preserve">
 <g>
  <title>Layer 1</title>
  <g id="svg_14">
   <path fill="#ffffff" d="m180.69876,360.2775c-39.76065,-27.8479 -56.12182,-65.60019 -48.71142,-113.13741c3.17356,-20.35817 12.69998,-38.06508 26.38441,-53.51744c2.62736,-2.96684 5.42267,-4.14915 8.61508,-1.57597c3.66028,2.95031 2.22402,6.08778 -0.40323,9.02957c-8.29886,9.29246 -14.46107,19.85196 -19.11964,31.40622c-20.07767,49.7968 7.88731,110.86555 58.80067,128.16398c0.30365,0.10318 0.65035,0.07962 1.52394,0.1749c9.30271,-28.759 18.63736,-57.61673 28.18225,-87.12439c-2.2834,-0.10577 -4.01838,-0.25235 -5.75363,-0.25574c-11.66516,-0.02276 -23.33038,-0.02639 -34.99554,-0.01086c-3.72333,0.00497 -6.84392,-0.94171 -6.87825,-5.35761c-0.03593,-4.62124 3.0807,-5.73159 7.07834,-5.71374c11.16502,0.04987 22.33044,0.01468 33.4957,0.01312c1.78089,-0.00024 3.56179,-0.00003 5.87123,-0.00003c0,-11.88676 -0.0006,-23.17776 0.00053,-34.46875c0.00021,-1.99974 0.01894,-3.99954 0.00919,-5.99921c-0.01741,-3.57118 1.60537,-5.7765 5.29196,-5.88053c3.9546,-0.11161 5.76606,2.23188 5.80931,5.95088c0.08334,7.16481 0.02838,14.33123 0.03065,21.49699c0.00034,1.07401 0.00003,2.14801 0.00003,3.22202c-0.48071,-0.67879 -0.96141,-1.35756 -1.44212,-2.03635c5.68513,-4.56053 11.86487,-8.64267 16.89172,-13.8399c3.71427,-3.84014 6.48185,-8.88436 8.69785,-13.82837c5.50067,-12.27222 10.444,-24.79425 15.79932,-37.66814c-10.17392,-5.49579 -21.17295,-8.87196 -32.75557,-10.33668c-23.34713,-2.95254 -44.98301,1.95935 -65.11747,14.13117c-2.02738,1.22562 -5.64909,1.73818 -7.60865,0.751c-4.07421,-2.05249 -3.29416,-6.99131 1.33601,-9.89666c11.82985,-7.42305 24.59201,-12.52868 38.37575,-14.98687c23.32704,-4.16016 45.76904,-1.43496 67.2738,8.62257c1.03617,0.48463 2.09879,0.9128 3.67578,1.59515c1.25425,-3.5923 2.43732,-6.98078 3.74329,-10.72123c-13.12506,-6.63973 -26.56793,-10.88846 -40.75847,-12.14702c-51.81171,-4.59519 -92.07594,15.04512 -119.87898,58.95071c-26.32939,41.57849 -22.46009,99.41612 8.40609,137.8485c0.20861,0.25973 0.43866,0.50226 0.64678,0.76233c3.60738,4.50824 3.99312,7.82919 0.88545,9.92529c-4.26161,2.87448 -6.74528,-0.14337 -9.08278,-3.13736c-15.42414,-19.75616 -24.94048,-42.02356 -27.86348,-66.9379c-8.10472,-69.08075 37.81281,-132.69813 105.84664,-146.94218c1.41125,-0.29549 3.78149,-1.4937 3.76124,-2.21632c-0.10016,-3.57424 1.74051,-7.41347 -2.13754,-10.57752c-11.55247,-9.42551 -16.93111,-21.68742 -14.92691,-36.61913c2.50813,-18.686 17.64494,-33.06454 36.39122,-35.05218c5.74647,-0.60928 8.46864,0.78238 8.98297,4.59237c0.56728,4.20207 -1.55044,6.04869 -7.72491,6.65734c-11.46715,1.1304 -19.72255,7.0695 -24.35955,17.41007c-4.40577,9.82495 -3.1327,19.42945 3.52956,29.32569c0.77602,-6.61399 4.78032,-7.29857 9.56902,-7.21952c9.66282,0.1595 19.33119,0.13343 28.99511,0.01172c4.65759,-0.05864 7.87805,1.3133 8.11365,7.53545c4.35706,-5.31517 6.25052,-10.61094 6.47885,-16.50752c0.33984,-8.77636 -2.58792,-16.35582 -8.84634,-22.56029c-2.72861,-2.70507 -4.76538,-5.57211 -1.30771,-8.94234c3.28921,-3.20603 6.17544,-1.62368 9.05255,1.13883c16.37933,15.72705 16.4198,42.54367 -0.64731,57.958c-4.69058,4.23632 -5.73068,8.35096 -4.63885,13.45875c11.56064,3.69945 22.92361,7.33566 34.74673,11.11911c0.50977,-1.4648 1.20459,-3.44433 1.88788,-5.42784c1.74118,-5.05463 3.46933,-5.96321 8.63724,-4.32664c6.49469,2.05679 12.90991,4.38374 19.45929,6.24223c4.66772,1.32452 5.40396,3.78244 4.13168,8.20932c-5.36719,18.67544 -10.6207,37.38757 -15.57007,56.17734c-2.24234,8.51277 -4.10895,17.17781 -5.32602,25.88835c-0.79223,5.67033 -0.9992,11.72211 0.0943,17.29645c2.61121,13.31129 1.5285,26.13517 -2.62988,38.89015c-12.56738,38.54785 -25.09155,77.10983 -37.63376,115.66592c-2.86557,8.80915 -3.72925,9.02616 -12.50043,6.50842c-16.42773,-4.71566 -32.89483,-9.31997 -49.45488,-13.5418c-18.17753,-4.63416 -34.67266,-12.56446 -49.7303,-23.67011c-3.15285,-2.32535 -4.57573,-4.95785 -2.22273,-8.45413c2.47897,-3.68347 5.42274,-2.61655 8.64095,-0.68823c9.25709,5.54672 18.60727,10.94058 27.98823,16.27603c1.82245,1.03653 3.94914,1.53808 6.39603,2.45987c1.37143,-4.04181 2.62842,-7.74637 3.84927,-11.34446c-7.83,-4.07803 -15.43791,-8.0404 -23.35112,-12.19744m65.69251,-226.41285c1.76089,0 3.52179,0 5.32721,0c0,-6.63456 0,-12.85388 0,-19.22234c-7.99721,0 -15.68873,0 -23.38274,0c0,6.62782 0,12.87461 0,19.21003c5.86919,0 11.47533,0 18.05553,0.01231z" id="svg_2"/>
   <path fill="#ffffff" d="m415.26132,411.23273c-9.32324,2.57589 -9.6199,2.42221 -12.43231,-6.20801c-12.92078,-39.64902 -25.76617,-79.32288 -38.81055,-118.93118c-3.36767,-10.22562 -4.24701,-20.52579 -2.16757,-30.9982c2.01892,-10.16744 1.53693,-20.07499 -0.88113,-30.1507c-3.60749,-15.03178 -6.22855,-30.30441 -9.99015,-45.29365c-2.41336,-9.61646 -5.97613,-18.9599 -9.31515,-28.32177c-1.56268,-4.38145 -0.66632,-6.95187 3.87363,-8.36766c6.66116,-2.0773 13.26025,-4.35531 19.87271,-6.58655c4.30749,-1.45347 7.24862,-0.14622 8.30038,4.3308c6.54871,27.87634 19.65991,53.18027 31.12244,79.11447c1.89291,4.28287 4.79895,8.48735 8.22766,11.65576c12.40234,11.46073 19.58548,25.78327 24.62988,41.55268c11.54026,36.07629 23.24829,72.09894 34.88794,108.14343c0.3577,1.1077 0.75137,2.2056 1.06201,3.32642c1.54566,5.57705 0.59085,7.61935 -4.89688,9.41635c-17.68115,5.78988 -35.39679,11.47445 -53.48291,17.31781z" id="svg_3"/>
   <path fill="#ffffff" d="m87.59744,270.68555c0.90968,6.58624 -0.52559,8.41272 -6.53114,8.42993c-18.27857,0.05231 -36.55742,-0.00128 -54.83609,0.03024c-3.98879,0.00687 -7.1321,-1.18289 -7.07074,-5.72723c0.06164,-4.56546 3.26467,-5.52262 7.23844,-5.50748c18.27846,0.0697 36.55807,-0.04489 54.83502,0.1347c2.06073,0.02024 4.1073,1.48032 6.36451,2.63984z" id="svg_4"/>
   <path fill="#ffffff" d="m48.50416,244.09134c-4.21905,-0.334 -6.37063,-2.39739 -6.04188,-6.17305c0.34484,-3.96045 3.30752,-4.97403 6.81104,-4.97177c12.78902,0.00824 25.57804,0.00683 38.36707,0.00096c3.7876,-0.00173 6.72,1.2897 6.74863,5.54689c0.0309,4.59427 -3.06859,5.66026 -7.07313,5.63696c-12.78858,-0.07443 -25.57787,-0.0299 -38.81173,-0.03999z" id="svg_5"/>
   <path fill="#ffffff" d="m90.88919,313.52856c-14.4884,0.26691 -28.61148,0.37461 -42.73467,0.39432c-3.51973,0.00492 -5.74035,-1.82672 -5.75826,-5.45852c-0.01777,-3.60419 2.10736,-5.53916 5.66301,-5.55515c13.46382,-0.06052 26.93162,-0.18088 40.38815,0.13641c1.9411,0.04581 5.11184,2.1128 5.41565,3.68772c0.37819,1.96048 -1.63059,4.38141 -2.97388,6.79522z" id="svg_6"/>
   <path fill="#ffffff" d="m355.23221,112.22032c-3.50196,2.94887 -6.73892,5.66225 -9.97586,8.37562c4.474,-14.29347 12.38403,-25.96119 23.22827,-35.57261c1.66318,-1.4741 3.97891,-2.92435 6.0592,-3.02584c2.33039,-0.11369 6.09266,0.71374 6.76987,2.23073c0.86914,1.94694 0.12866,5.8012 -1.40918,7.39829c-3.75751,3.9024 -8.40982,6.93375 -12.63174,10.40121c-3.97193,3.26213 -7.85395,6.63369 -12.04056,10.1926z" id="svg_7"/>
   <path fill="#ffffff" d="m71.51412,337.90643c7.42151,-0.01233 14.39626,0.0333 21.36991,-0.03436c3.94349,-0.03824 7.12509,0.90833 7.0816,5.59897c-0.04036,4.3529 -3.04495,5.46289 -6.78475,5.46011c-6.97428,-0.00515 -13.94857,0.00418 -20.92285,-0.00317c-3.30221,-0.00351 -6.05471,-0.98538 -6.48937,-4.72315c-0.44161,-3.79751 1.40449,-5.98401 5.74546,-6.2984z" id="svg_8"/>
   <path fill="#ffffff" d="m97.66631,199.07819c0.8643,2.47464 2.38436,5.23188 1.59131,6.86784c-0.80121,1.65282 -3.85293,2.96478 -5.9919,3.08113c-6.96184,0.37863 -13.95729,0.1136 -20.93946,0.15387c-3.86254,0.02228 -6.67178,-1.33266 -6.60901,-5.61118c0.06286,-4.28385 2.96,-5.55862 6.78273,-5.44209c8.26901,0.25208 16.5383,0.49472 25.16633,0.95043z" id="svg_9"/>
   <path fill="#ffffff" d="m344.16626,110.27339c-2.19138,4.82021 -4.20489,9.3137 -6.21845,13.80718c-0.29656,0.03213 -0.59316,0.06425 -0.88974,0.09637c0,-4.88399 -0.75231,-9.91686 0.17765,-14.61685c1.36923,-6.91989 3.60849,-13.72719 6.11242,-20.34196c1.65564,-4.37374 5.70643,-5.9054 8.7006,-3.98275c3.84362,2.46809 2.95749,6.04512 1.26303,9.23329c-2.79651,5.26176 -5.95929,10.32886 -9.14551,15.80472z" id="svg_10"/>
   <path fill="#ffffff" d="m164.38768,273.43195c-2.4014,-0.03263 -4.7728,0.5715 -6.29323,-0.30332c-1.96983,-1.13339 -4.52786,-3.46942 -4.49467,-5.24396c0.03435,-1.8363 2.5776,-4.12799 4.56917,-5.2622c1.5214,-0.86646 3.89416,-0.28354 5.88748,-0.26557c3.35499,0.03031 5.95988,1.21836 6.30217,4.95502c0.36001,3.93015 -1.79019,5.81403 -5.97092,6.12003z" id="svg_11"/>
   <path fill="#ffffff" d="m234.76666,186.57452c0.04143,-4.34251 2.18903,-6.22982 5.96985,-6.02562c3.98131,0.21505 5.23973,2.91622 5.21071,6.50475c-0.0134,1.65712 0.08511,3.32243 -0.04637,4.96973c-0.25939,3.24962 -2.02077,5.38299 -5.33101,5.41008c-3.44467,0.02815 -5.57379,-1.88327 -5.77518,-5.48993c-0.09224,-1.65236 -0.02569,-3.31359 -0.028,-5.36901z" id="svg_12"/>
  </g>
 </g>

</svg>